<svg id="svg" version="1.1" xmlns="http://www.w3.org/2000/svg" xmlns:xlink="http://www.w3.org/1999/xlink" width="400" height="400" viewBox="0, 0, 400,400"><g id="svgg"><path id="path0" d="M165.200 3.194 C 161.147 3.540,158.109 4.392,156.262 5.702 C 155.294 6.388,154.182 6.556,148.821 6.823 C 141.629 7.181,139.750 7.583,137.265 9.293 C 135.800 10.301,134.904 10.570,132.048 10.858 C 127.896 11.278,126.332 11.752,124.122 13.262 C 122.997 14.031,121.372 14.612,119.193 15.025 C 115.074 15.806,114.478 16.044,112.949 17.512 C 112.138 18.291,110.969 18.869,109.619 19.159 C 107.105 19.698,106.170 20.153,104.600 21.606 C 103.842 22.308,102.592 22.885,101.205 23.174 C 98.819 23.672,97.394 24.448,96.291 25.848 C 95.896 26.350,94.605 27.032,93.375 27.390 C 92.078 27.767,90.542 28.597,89.652 29.401 C 88.818 30.154,87.341 31.112,86.368 31.530 C 85.396 31.948,83.790 32.971,82.800 33.803 C 81.810 34.635,80.446 35.549,79.768 35.835 C 79.091 36.120,77.704 37.174,76.687 38.177 C 75.670 39.180,74.568 40.000,74.239 40.000 C 73.910 40.000,73.151 40.642,72.553 41.426 C 71.954 42.211,70.820 43.182,70.032 43.586 C 69.245 43.989,67.955 44.922,67.167 45.659 C 66.379 46.397,62.824 49.602,59.267 52.782 C 55.710 55.962,52.800 58.700,52.800 58.866 C 52.800 59.033,52.113 59.851,51.273 60.685 C 50.432 61.518,49.184 62.977,48.497 63.926 C 47.811 64.875,46.429 66.554,45.425 67.657 C 44.421 68.760,43.600 69.808,43.600 69.987 C 43.600 70.167,42.745 71.213,41.700 72.314 C 39.160 74.988,36.702 77.931,35.781 79.400 C 35.367 80.060,34.453 81.320,33.750 82.200 C 33.047 83.080,32.155 84.610,31.768 85.600 C 31.382 86.590,30.387 88.149,29.558 89.064 C 28.729 89.979,27.857 91.444,27.621 92.320 C 27.385 93.197,26.407 94.925,25.447 96.161 C 24.487 97.398,23.469 99.262,23.186 100.305 C 22.902 101.347,21.989 103.190,21.158 104.400 C 20.327 105.610,19.433 107.500,19.173 108.600 C 18.684 110.669,17.998 112.007,16.725 113.373 C 15.808 114.357,15.107 116.813,15.046 119.259 C 15.021 120.281,14.897 121.055,14.771 120.979 C 13.639 120.295,11.282 125.958,10.934 130.200 C 10.758 132.334,10.429 133.438,9.548 134.842 C 7.846 137.552,7.154 140.373,6.815 145.986 C 6.520 150.869,6.333 151.608,4.564 154.872 C 3.133 157.514,3.000 160.104,3.000 185.400 C 3.000 213.040,3.145 215.100,5.306 218.083 C 6.433 219.639,6.508 219.995,6.826 225.360 C 7.180 231.321,7.639 233.187,9.616 236.691 C 10.335 237.965,10.804 239.379,10.810 240.294 C 10.834 243.994,13.818 251.609,14.856 250.617 C 14.935 250.541,15.028 251.442,15.062 252.620 C 15.146 255.477,15.829 257.403,17.380 259.152 C 18.285 260.173,18.860 261.426,19.330 263.400 C 19.842 265.553,20.289 266.466,21.263 267.353 C 22.205 268.209,22.726 269.235,23.291 271.339 C 23.886 273.559,24.375 274.480,25.548 275.597 C 26.513 276.514,27.233 277.688,27.570 278.894 C 27.859 279.924,28.678 281.449,29.390 282.283 C 30.103 283.117,31.058 284.533,31.514 285.428 C 31.970 286.323,33.002 287.844,33.807 288.809 C 34.613 289.773,35.636 291.337,36.081 292.283 C 36.526 293.230,37.365 294.411,37.945 294.906 C 38.525 295.402,39.266 296.346,39.591 297.004 C 39.917 297.662,40.907 298.965,41.791 299.899 C 42.676 300.834,44.448 302.755,45.730 304.169 C 47.011 305.583,48.672 307.397,49.421 308.201 C 50.169 309.004,51.360 310.413,52.066 311.331 C 53.546 313.254,60.430 319.962,60.946 319.985 C 61.283 320.000,63.525 322.036,67.898 326.300 C 69.082 327.455,70.206 328.400,70.394 328.400 C 70.583 328.400,71.697 329.299,72.869 330.397 C 74.041 331.495,75.165 332.395,75.367 332.397 C 75.568 332.399,75.658 332.338,75.567 332.261 C 73.153 330.253,70.928 327.998,71.133 327.770 C 71.280 327.606,71.202 327.585,70.959 327.723 C 70.716 327.861,70.176 327.717,69.759 327.402 C 69.028 326.852,69.032 326.836,69.868 326.986 C 70.792 327.152,71.219 326.547,71.030 325.339 C 70.967 324.932,70.993 324.830,71.089 325.110 C 71.184 325.391,71.545 325.571,71.890 325.510 C 72.235 325.450,72.598 325.631,72.696 325.913 C 72.794 326.194,72.656 326.374,72.388 326.313 C 72.119 326.251,71.809 326.450,71.698 326.756 C 71.581 327.078,71.674 327.201,71.920 327.049 C 72.154 326.905,72.462 326.976,72.604 327.207 C 72.759 327.458,73.185 327.219,73.661 326.613 C 74.910 325.026,77.649 325.360,78.609 327.218 C 78.978 327.931,79.730 328.503,80.693 328.804 C 81.538 329.068,82.815 329.963,83.600 330.845 C 84.671 332.046,85.564 332.572,87.400 333.083 C 88.720 333.451,90.264 334.182,90.830 334.708 C 91.397 335.235,92.879 336.080,94.123 336.585 C 95.368 337.091,96.983 338.029,97.713 338.670 C 98.442 339.310,100.127 340.231,101.456 340.715 C 102.785 341.200,104.200 341.958,104.600 342.400 C 105.000 342.842,106.586 343.579,108.124 344.037 C 109.662 344.495,111.796 345.472,112.865 346.207 C 113.972 346.969,115.798 347.755,117.105 348.034 C 118.367 348.304,120.738 349.130,122.374 349.870 C 124.010 350.611,126.417 351.494,127.724 351.832 C 129.030 352.171,131.407 352.967,133.005 353.602 C 134.604 354.237,138.497 355.307,141.656 355.981 C 144.815 356.654,148.750 357.560,150.400 357.995 C 159.798 360.469,187.976 361.982,199.000 360.604 C 199.660 360.522,202.000 360.343,204.200 360.207 C 209.997 359.850,215.974 358.927,221.000 357.614 C 223.420 356.982,227.016 356.167,228.990 355.803 C 230.965 355.438,233.935 354.628,235.590 354.002 C 237.246 353.375,240.040 352.481,241.800 352.014 C 243.560 351.547,246.295 350.547,247.878 349.791 C 252.649 347.513,255.486 347.446,256.593 349.586 C 257.882 352.080,256.888 358.836,254.850 361.427 C 254.383 362.021,254.000 362.734,254.000 363.011 C 254.000 363.288,253.704 363.628,253.343 363.767 C 252.981 363.905,252.790 364.124,252.919 364.252 C 253.047 364.380,252.797 364.866,252.364 365.331 C 251.348 366.421,251.654 368.088,253.222 370.000 C 253.853 370.770,254.949 372.628,255.657 374.128 C 257.189 377.375,263.488 383.599,266.200 384.547 C 266.759 384.742,266.639 384.520,265.800 383.809 C 265.140 383.249,264.780 382.821,265.000 382.858 C 265.536 382.948,267.511 382.073,267.000 381.972 C 266.505 381.874,269.925 381.236,272.541 380.938 C 273.608 380.817,276.445 381.020,278.844 381.389 C 285.038 382.343,292.961 380.908,298.592 377.813 C 299.917 377.085,301.720 376.269,302.600 375.999 C 303.480 375.730,305.430 374.892,306.933 374.138 C 312.152 371.519,313.990 371.589,320.154 374.641 C 322.109 375.608,323.920 376.400,324.178 376.400 C 324.436 376.400,325.701 377.034,326.988 377.810 C 334.137 382.115,343.407 382.810,352.888 379.752 C 356.840 378.478,362.173 373.568,365.172 368.444 C 368.239 363.204,368.098 364.793,368.363 332.395 L 368.600 303.391 370.700 299.890 C 371.855 297.964,372.800 296.300,372.800 296.191 C 372.800 296.082,373.330 295.262,373.977 294.368 C 374.625 293.474,375.460 291.810,375.833 290.671 C 376.207 289.532,377.124 287.376,377.871 285.879 C 378.745 284.132,379.574 281.486,380.190 278.479 C 380.718 275.906,381.440 272.630,381.795 271.200 C 383.046 266.160,383.059 255.836,381.821 250.000 C 381.238 247.250,380.398 243.200,379.954 241.000 C 379.511 238.800,378.717 236.262,378.192 235.359 C 377.666 234.457,376.870 232.400,376.424 230.790 C 375.978 229.179,375.157 227.203,374.600 226.400 C 374.043 225.596,373.334 223.727,373.024 222.247 C 372.443 219.470,371.877 218.400,370.991 218.400 C 370.709 218.400,370.121 217.794,369.684 217.053 C 369.085 216.038,368.517 215.636,367.379 215.422 C 365.471 215.064,360.648 210.406,360.297 208.582 C 360.173 207.932,360.131 200.200,360.206 191.400 C 360.349 174.423,360.051 166.449,359.055 160.600 C 357.802 153.243,354.820 139.703,353.813 136.800 C 353.241 135.150,352.408 132.378,351.962 130.639 C 351.517 128.901,350.690 126.567,350.125 125.453 C 349.561 124.339,348.694 121.954,348.198 120.153 C 347.703 118.351,346.657 115.825,345.875 114.539 C 345.092 113.253,344.245 111.390,343.992 110.400 C 343.739 109.410,343.008 107.775,342.368 106.768 C 341.728 105.760,340.847 103.898,340.410 102.630 C 339.974 101.363,339.093 99.729,338.453 98.999 C 337.813 98.270,336.993 96.782,336.631 95.693 C 336.269 94.604,335.374 93.012,334.643 92.156 C 333.911 91.300,333.024 89.610,332.671 88.400 C 332.290 87.091,331.690 85.989,331.189 85.680 C 330.726 85.394,329.830 84.067,329.199 82.731 C 328.567 81.395,327.409 79.715,326.625 78.997 C 325.707 78.157,325.200 77.330,325.200 76.675 C 325.200 76.115,324.936 75.419,324.614 75.129 C 323.249 73.898,322.872 73.661,322.643 73.891 C 322.509 74.024,322.392 73.968,322.383 73.767 C 322.373 73.565,322.218 72.640,322.038 71.711 C 321.858 70.782,321.854 70.110,322.028 70.217 C 322.202 70.325,322.450 70.243,322.579 70.034 C 322.708 69.826,322.638 69.547,322.424 69.415 C 322.210 69.283,322.125 68.940,322.235 68.654 C 322.360 68.327,322.135 68.145,321.634 68.166 C 321.193 68.185,320.833 68.020,320.833 67.800 C 320.833 67.580,321.176 67.413,321.596 67.430 C 322.017 67.446,322.262 67.300,322.142 67.106 C 322.022 66.912,321.356 66.874,320.662 67.021 L 319.400 67.289 320.575 66.045 L 321.749 64.801 322.662 65.658 C 323.164 66.130,323.457 66.708,323.313 66.941 C 322.773 67.814,322.882 69.168,323.530 69.657 C 324.096 70.083,324.122 70.074,323.700 69.601 C 323.059 68.882,323.041 68.081,323.680 68.720 C 324.458 69.498,324.986 69.268,324.261 68.468 C 323.897 68.065,323.697 67.637,323.817 67.516 C 324.061 67.273,326.554 69.644,327.940 71.437 L 328.839 72.600 328.252 71.400 C 327.930 70.740,326.886 69.375,325.933 68.367 C 324.980 67.359,323.706 66.009,323.102 65.367 C 321.812 63.996,321.672 63.848,318.800 60.823 C 317.590 59.548,316.126 57.987,315.546 57.353 C 314.967 56.719,313.977 55.743,313.346 55.184 C 312.716 54.626,311.930 53.873,311.600 53.513 C 309.272 50.968,306.101 48.000,305.710 48.000 C 305.452 48.000,304.758 47.367,304.167 46.592 C 303.577 45.818,302.262 44.624,301.247 43.938 C 300.231 43.253,299.162 42.353,298.871 41.937 C 298.580 41.522,297.320 40.664,296.071 40.031 C 294.822 39.398,293.350 38.395,292.800 37.801 C 292.250 37.208,291.148 36.388,290.352 35.979 C 289.555 35.571,288.191 34.553,287.320 33.718 C 286.449 32.883,285.031 31.953,284.168 31.652 C 283.306 31.350,281.700 30.434,280.600 29.616 C 279.500 28.798,277.815 27.732,276.856 27.248 C 275.897 26.763,274.457 25.848,273.656 25.213 C 272.855 24.578,271.186 23.769,269.947 23.415 C 268.707 23.060,266.904 22.156,265.940 21.404 C 264.937 20.623,263.187 19.778,261.851 19.430 C 260.567 19.096,258.590 18.212,257.458 17.467 C 255.168 15.958,253.563 15.374,250.600 14.970 C 248.366 14.666,247.501 14.298,245.910 12.975 C 244.710 11.977,240.191 10.800,237.559 10.800 C 236.391 10.800,235.133 10.385,233.438 9.440 C 230.011 7.527,228.231 7.142,221.383 6.829 C 215.625 6.566,215.273 6.500,213.183 5.310 C 211.982 4.625,210.010 3.857,208.800 3.603 C 206.133 3.042,170.868 2.712,165.200 3.194 M187.100 3.491 C 186.275 3.578,184.925 3.578,184.100 3.491 C 183.275 3.405,183.950 3.334,185.600 3.334 C 187.250 3.334,187.925 3.405,187.100 3.491 M181.505 3.875 C 181.122 3.975,180.402 3.979,179.905 3.883 C 179.407 3.787,179.720 3.705,180.600 3.701 C 181.480 3.696,181.887 3.775,181.505 3.875 M191.100 3.876 C 190.715 3.976,190.085 3.976,189.700 3.876 C 189.315 3.775,189.630 3.693,190.400 3.693 C 191.170 3.693,191.485 3.775,191.100 3.876 M196.800 28.848 C 199.110 29.033,202.800 29.535,205.000 29.964 C 207.201 30.394,210.981 30.957,213.400 31.217 C 215.820 31.476,219.240 32.123,221.000 32.653 C 222.760 33.184,226.540 34.226,229.400 34.968 C 232.260 35.711,235.590 36.770,236.800 37.322 C 238.010 37.874,240.080 38.626,241.400 38.993 C 242.720 39.361,245.420 40.437,247.400 41.384 C 256.466 45.722,261.989 48.513,264.200 49.871 C 290.622 66.101,306.127 81.898,322.432 109.200 C 323.417 110.850,324.567 113.010,324.988 114.000 C 325.409 114.990,326.420 117.060,327.236 118.600 C 328.052 120.140,328.851 121.850,329.013 122.400 C 329.174 122.950,329.909 124.711,330.645 126.313 C 331.382 127.914,332.375 130.524,332.853 132.113 C 333.331 133.701,334.238 136.298,334.868 137.884 C 335.498 139.470,336.473 142.948,337.035 145.614 C 337.597 148.279,338.297 151.140,338.590 151.972 C 341.990 161.607,342.913 191.869,340.378 210.536 C 339.634 216.015,340.052 216.927,345.301 221.263 C 359.089 232.657,366.372 250.641,363.985 267.400 C 363.766 268.940,363.067 271.820,362.433 273.800 C 361.798 275.780,360.982 278.363,360.618 279.540 C 359.847 282.039,356.336 288.278,353.607 292.000 C 349.863 297.107,350.226 293.563,350.000 327.200 C 349.815 354.709,349.745 357.122,349.085 358.585 C 346.519 364.273,341.807 364.431,331.000 359.193 C 329.240 358.340,326.861 357.278,325.714 356.832 C 324.567 356.387,322.677 355.497,321.514 354.855 C 315.573 351.574,312.154 351.592,304.923 354.941 C 302.241 356.183,299.858 357.200,299.628 357.200 C 299.399 357.200,297.543 358.003,295.505 358.984 C 285.461 363.821,282.486 364.207,278.982 361.130 C 275.981 358.496,276.019 358.774,276.009 338.920 C 275.997 314.679,275.732 313.879,269.255 318.518 C 268.235 319.249,266.230 320.486,264.800 321.267 C 255.407 326.397,252.167 328.066,249.742 329.027 C 248.234 329.624,246.100 330.566,245.000 331.121 C 243.900 331.676,241.470 332.624,239.600 333.227 C 237.730 333.831,234.670 334.867,232.800 335.531 C 230.930 336.194,227.510 337.198,225.200 337.762 C 222.890 338.325,219.650 339.155,218.000 339.605 C 216.350 340.056,213.110 340.605,210.800 340.826 C 208.490 341.048,204.890 341.486,202.800 341.801 C 197.312 342.628,185.161 343.315,181.200 343.021 C 174.391 342.516,168.577 341.994,167.600 341.801 C 167.050 341.692,163.538 341.262,159.796 340.846 C 155.138 340.328,152.047 339.763,149.996 339.055 C 148.348 338.487,145.290 337.664,143.200 337.226 C 138.695 336.283,137.646 335.973,135.000 334.800 C 133.900 334.312,131.920 333.598,130.600 333.212 C 126.169 331.918,111.478 325.047,106.952 322.152 C 105.790 321.409,104.759 320.800,104.661 320.800 C 101.965 320.800,78.960 302.526,71.628 294.560 C 70.433 293.262,68.434 291.120,67.186 289.800 C 65.077 287.569,57.870 278.259,54.772 273.761 C 49.969 266.790,40.315 248.572,39.201 244.378 C 38.941 243.400,38.118 241.205,37.373 239.500 C 36.627 237.795,35.640 234.922,35.178 233.115 C 34.717 231.308,33.805 228.221,33.151 226.254 C 32.498 224.287,31.613 220.392,31.185 217.598 C 30.757 214.805,30.044 210.757,29.601 208.604 C 27.203 196.952,27.102 175.425,29.392 164.250 C 29.939 161.583,30.667 157.368,31.011 154.883 C 31.355 152.399,32.086 148.889,32.637 147.083 C 33.188 145.278,34.184 141.820,34.852 139.400 C 35.520 136.980,36.669 133.623,37.407 131.940 C 38.144 130.258,38.955 128.098,39.208 127.140 C 39.462 126.183,40.541 123.600,41.607 121.400 C 42.673 119.200,43.823 116.770,44.163 116.000 C 47.486 108.475,57.802 92.679,64.487 84.882 C 70.171 78.251,83.317 65.361,86.551 63.245 C 87.094 62.890,89.294 61.266,91.441 59.635 C 95.309 56.696,103.382 51.200,103.831 51.200 C 103.959 51.200,104.995 50.595,106.132 49.856 C 110.432 47.061,124.977 40.085,128.340 39.203 C 129.298 38.953,131.477 38.134,133.183 37.383 C 134.889 36.633,137.886 35.648,139.843 35.193 C 141.799 34.739,145.052 33.839,147.072 33.194 C 149.212 32.511,153.302 31.680,156.872 31.204 C 160.242 30.755,164.476 30.111,166.281 29.773 C 173.028 28.510,187.192 28.081,196.800 28.848 M311.798 54.736 C 311.688 54.845,311.914 55.310,312.299 55.768 C 313.000 56.600,313.000 56.600,312.098 55.836 C 311.601 55.415,311.288 54.979,311.401 54.865 C 311.515 54.752,311.201 54.196,310.704 53.630 L 309.800 52.600 310.898 53.568 C 311.503 54.101,311.907 54.626,311.798 54.736 M315.468 58.254 C 316.149 58.803,316.138 58.814,315.309 58.413 C 314.819 58.176,314.224 57.581,313.987 57.091 C 313.586 56.262,313.597 56.251,314.146 56.932 C 314.470 57.335,315.065 57.930,315.468 58.254 M317.587 60.924 C 317.594 61.102,317.756 61.151,317.947 61.033 C 318.137 60.915,318.615 61.175,319.009 61.609 C 319.402 62.044,319.603 62.400,319.456 62.400 C 319.308 62.400,319.758 62.910,320.456 63.533 C 321.503 64.469,321.611 64.710,321.075 64.916 C 320.718 65.053,320.319 64.993,320.189 64.783 C 320.059 64.572,320.153 64.400,320.399 64.400 C 320.644 64.400,320.343 63.968,319.730 63.441 C 319.116 62.913,318.272 62.548,317.853 62.628 C 317.434 62.709,317.207 62.660,317.347 62.520 C 317.487 62.380,317.303 61.935,316.939 61.532 C 316.574 61.130,316.422 60.800,316.600 60.800 C 316.778 60.800,316.581 60.407,316.162 59.927 L 315.400 59.055 316.487 59.827 C 317.086 60.252,317.581 60.746,317.587 60.924 M317.302 61.440 C 317.688 61.895,318.270 62.267,318.595 62.267 C 319.049 62.267,319.082 62.139,318.737 61.724 C 318.489 61.425,318.193 61.273,318.080 61.387 C 317.966 61.500,317.587 61.373,317.237 61.103 C 316.761 60.738,316.777 60.823,317.302 61.440 M262.063 69.856 C 261.768 69.985,260.058 71.931,258.263 74.180 C 256.468 76.429,244.632 91.213,231.959 107.034 C 207.792 137.206,207.393 137.745,207.804 139.618 C 208.042 140.702,210.026 142.800,210.814 142.800 C 212.674 142.800,221.954 151.392,225.857 156.729 C 231.181 164.007,230.008 164.227,243.646 153.400 C 302.519 106.663,300.800 108.088,300.800 106.009 C 300.800 101.023,283.200 81.808,269.646 71.995 C 266.707 69.868,263.864 69.066,262.063 69.856 M179.717 172.409 C 174.263 174.187,169.765 181.487,170.611 187.191 C 173.295 205.299,199.428 204.036,199.392 185.800 C 199.372 175.359,190.076 169.032,179.717 172.409 M134.124 210.868 C 131.741 212.677,129.237 214.672,122.161 220.400 C 121.210 221.170,118.518 223.330,116.181 225.200 C 113.843 227.070,108.481 231.371,104.265 234.759 C 100.049 238.146,95.531 241.746,94.225 242.759 C 73.122 259.123,68.791 262.913,68.810 265.000 C 68.867 271.185,99.439 301.939,105.708 302.116 C 107.559 302.169,108.545 301.312,112.824 295.938 C 114.811 293.442,117.943 289.510,119.783 287.200 C 121.624 284.890,125.116 280.480,127.545 277.400 C 133.334 270.059,144.945 255.392,153.200 244.994 C 161.213 234.902,161.996 233.756,161.998 232.130 C 162.000 230.730,162.236 230.954,155.800 226.263 C 151.368 223.033,146.313 217.856,144.066 214.245 C 140.245 208.106,138.530 207.523,134.124 210.868 M373.616 213.051 C 373.625 213.243,374.184 214.030,374.857 214.800 L 376.082 216.200 375.467 214.971 C 374.841 213.719,373.587 212.418,373.616 213.051 M57.600 315.531 C 57.710 315.628,57.440 315.518,57.000 315.285 C 56.560 315.052,55.390 313.998,54.400 312.943 L 52.600 311.025 55.000 313.189 C 56.320 314.379,57.490 315.433,57.600 315.531 M59.343 316.369 C 59.531 316.386,59.576 316.715,59.442 317.100 C 59.243 317.671,59.319 317.653,59.853 317.000 C 60.322 316.427,60.444 316.386,60.284 316.854 C 60.146 317.259,60.506 317.935,61.230 318.629 C 62.581 319.923,62.828 319.508,61.530 318.126 C 61.052 317.617,60.829 317.200,61.034 317.200 C 61.239 317.200,61.629 317.555,61.900 317.989 C 62.217 318.496,62.632 318.686,63.062 318.521 C 63.510 318.349,63.636 318.417,63.445 318.727 C 63.258 319.030,63.374 319.108,63.779 318.953 C 64.121 318.822,64.403 318.509,64.406 318.257 C 64.410 318.001,64.574 318.055,64.780 318.381 C 64.982 318.700,65.071 319.085,64.978 319.236 C 64.885 319.386,65.122 319.755,65.504 320.055 C 66.134 320.548,66.148 320.533,65.651 319.900 C 65.329 319.489,65.276 319.200,65.524 319.200 C 65.756 319.200,66.062 319.565,66.203 320.011 C 66.465 320.836,68.025 322.082,68.653 321.968 C 69.529 321.809,69.968 322.068,70.232 322.900 C 70.660 324.245,70.724 326.393,70.338 326.450 C 70.152 326.478,69.775 326.535,69.500 326.577 C 68.800 326.685,66.775 324.764,67.076 324.277 C 67.212 324.057,67.134 323.993,66.903 324.136 C 66.345 324.481,62.324 320.846,62.661 320.301 C 62.812 320.057,62.734 319.993,62.479 320.151 C 62.233 320.303,61.740 319.976,61.374 319.416 C 61.010 318.861,60.548 318.509,60.346 318.633 C 60.145 318.758,60.030 318.621,60.090 318.330 C 60.151 318.038,59.999 317.837,59.753 317.882 C 59.507 317.928,58.903 317.536,58.411 317.011 C 57.613 316.163,57.597 316.074,58.258 316.199 C 58.666 316.276,59.154 316.353,59.343 316.369 M64.142 321.063 C 64.767 321.757,65.305 322.473,65.339 322.654 C 65.415 323.065,66.309 323.210,67.041 322.929 C 67.635 322.701,67.417 322.000,66.753 322.000 C 66.533 322.000,66.464 322.180,66.600 322.400 C 67.138 323.271,66.150 322.722,64.619 321.300 C 63.390 320.158,63.276 320.101,64.142 321.063 M68.334 324.930 C 68.814 325.441,69.116 325.951,69.004 326.063 C 68.892 326.175,69.075 326.267,69.411 326.267 C 69.847 326.267,69.711 325.943,68.936 325.133 C 68.339 324.510,67.763 324.000,67.655 324.000 C 67.548 324.000,67.854 324.418,68.334 324.930 " stroke="none" fill="#eaeff4" fill-rule="evenodd"></path><path id="path1" d="M184.100 3.491 C 184.925 3.578,186.275 3.578,187.100 3.491 C 187.925 3.405,187.250 3.334,185.600 3.334 C 183.950 3.334,183.275 3.405,184.100 3.491 M177.600 31.210 C 164.722 32.025,155.582 33.191,150.906 34.617 C 149.081 35.174,145.619 36.065,143.213 36.597 C 140.808 37.129,137.606 38.089,136.098 38.731 C 134.590 39.373,132.286 40.203,130.978 40.576 C 126.490 41.855,113.669 47.952,106.800 52.073 C 83.619 65.981,65.283 84.132,52.106 106.218 C 47.738 113.539,41.486 126.471,40.415 130.400 C 40.145 131.390,39.333 133.556,38.609 135.214 C 37.885 136.871,36.985 139.661,36.609 141.414 C 36.232 143.166,35.329 146.490,34.601 148.800 C 33.873 151.110,33.070 154.710,32.817 156.800 C 32.564 158.890,32.015 162.940,31.598 165.800 C 29.683 178.929,29.680 191.823,31.589 205.600 C 32.001 208.570,32.551 212.690,32.812 214.757 C 33.072 216.823,33.807 220.153,34.445 222.157 C 35.083 224.160,35.954 227.371,36.382 229.291 C 36.810 231.211,37.864 234.541,38.724 236.691 C 39.583 238.841,40.413 241.140,40.568 241.800 C 41.290 244.880,48.628 259.751,52.412 265.800 C 57.914 274.597,58.700 275.716,64.652 283.208 C 73.869 294.812,89.926 309.247,101.182 316.048 C 102.777 317.012,105.638 318.739,107.541 319.886 C 111.093 322.029,121.415 327.242,123.200 327.795 C 123.750 327.965,125.196 328.604,126.414 329.215 C 127.632 329.825,129.972 330.730,131.614 331.224 C 133.256 331.719,136.130 332.708,138.000 333.423 C 139.870 334.137,143.380 335.119,145.800 335.605 C 148.220 336.091,151.280 336.819,152.600 337.221 C 164.832 340.951,202.028 341.395,214.521 337.959 C 216.104 337.523,219.899 336.631,222.954 335.975 C 226.008 335.320,229.790 334.270,231.357 333.643 C 232.925 333.015,235.608 332.117,237.320 331.647 C 239.032 331.178,241.641 330.190,243.117 329.452 C 244.592 328.714,246.520 327.878,247.400 327.593 C 250.513 326.586,262.821 320.015,269.287 315.908 C 273.199 313.423,274.296 313.028,275.753 313.582 C 278.160 314.497,278.181 314.676,278.400 336.600 C 278.615 358.114,278.543 357.440,280.822 359.357 C 282.933 361.134,287.247 360.601,292.594 357.902 C 293.910 357.237,296.610 356.019,298.594 355.195 C 300.577 354.370,303.640 353.052,305.400 352.264 C 307.160 351.477,309.709 350.549,311.064 350.203 L 313.528 349.572 317.864 350.984 C 320.249 351.761,323.010 352.865,324.000 353.437 C 324.990 354.010,327.135 355.011,328.767 355.662 C 330.399 356.313,332.469 357.270,333.367 357.790 C 337.374 360.109,342.819 361.031,345.208 359.796 C 347.468 358.627,347.382 359.781,347.625 327.400 C 347.880 293.313,347.546 296.304,351.744 290.600 C 365.340 272.125,365.271 248.544,351.567 230.813 C 349.087 227.604,346.024 224.646,340.622 220.243 C 337.403 217.620,337.019 215.607,338.390 208.546 C 340.576 197.283,340.265 171.683,337.797 159.800 C 337.020 156.060,336.013 151.110,335.559 148.800 C 335.105 146.490,334.280 143.340,333.725 141.800 C 333.169 140.260,332.211 137.380,331.595 135.400 C 330.271 131.142,328.148 125.837,325.992 121.400 C 325.137 119.640,323.962 117.120,323.381 115.800 C 322.269 113.276,321.590 112.090,316.631 104.000 C 311.776 96.079,307.166 89.905,300.935 82.975 C 298.771 80.569,296.820 78.375,296.600 78.100 C 296.201 77.600,288.354 70.256,285.374 67.593 C 279.879 62.681,270.582 56.208,261.400 50.901 C 255.997 47.777,241.635 41.112,239.200 40.598 C 238.430 40.435,236.090 39.616,234.000 38.777 C 231.910 37.938,228.400 36.879,226.200 36.422 C 224.000 35.965,221.120 35.239,219.800 34.808 C 216.099 33.601,214.255 33.276,206.341 32.436 C 193.262 31.048,185.444 30.715,177.600 31.210 M195.132 40.808 C 197.625 41.029,202.305 41.640,205.532 42.167 C 208.759 42.694,212.883 43.331,214.695 43.582 C 216.508 43.834,219.028 44.402,220.295 44.844 C 221.563 45.286,224.893 46.263,227.696 47.015 C 230.498 47.767,233.656 48.820,234.713 49.356 C 235.770 49.891,237.706 50.635,239.017 51.009 C 251.086 54.454,273.239 69.051,286.870 82.542 C 301.629 97.148,316.966 120.551,320.984 134.600 C 321.362 135.920,322.192 138.260,322.829 139.800 C 323.466 141.340,324.438 144.644,324.989 147.142 C 325.541 149.640,326.424 153.060,326.951 154.742 C 330.584 166.323,330.835 198.161,327.424 214.743 C 327.124 216.204,326.753 218.570,326.601 220.000 C 326.449 221.430,326.071 222.999,325.762 223.486 C 325.453 223.973,325.200 224.443,325.200 224.529 C 325.200 224.842,329.441 227.493,331.200 228.280 C 342.784 233.461,352.133 250.824,350.441 264.014 C 349.097 274.494,343.289 284.846,333.925 293.448 C 329.265 297.728,319.044 300.772,311.082 300.250 C 304.996 299.852,292.204 295.495,289.494 292.898 L 288.385 291.836 287.207 293.264 C 286.228 294.453,285.682 294.739,283.960 294.968 C 281.630 295.277,278.675 296.646,276.715 298.324 C 270.538 303.614,261.168 309.695,250.200 315.533 C 247.530 316.954,239.104 320.690,237.400 321.208 C 236.520 321.476,234.540 322.210,233.000 322.840 C 231.460 323.470,228.130 324.506,225.600 325.142 C 223.070 325.779,219.432 326.765,217.516 327.332 C 215.588 327.904,211.478 328.646,208.316 328.993 C 205.172 329.339,201.520 329.792,200.200 330.000 C 191.551 331.365,180.039 331.291,168.400 329.796 C 165.870 329.472,161.730 328.949,159.200 328.635 C 156.670 328.322,152.890 327.517,150.800 326.847 C 148.710 326.177,145.671 325.350,144.046 325.009 C 142.422 324.668,139.992 323.924,138.646 323.357 C 137.301 322.790,134.663 321.826,132.784 321.215 C 128.982 319.977,115.684 313.550,112.000 311.168 C 110.693 310.324,109.034 309.330,108.312 308.960 C 99.404 304.394,78.765 285.836,71.163 275.557 C 70.414 274.543,68.538 272.023,66.996 269.957 C 61.219 262.216,52.985 247.557,51.181 241.800 C 50.906 240.920,50.073 238.863,49.330 237.229 C 48.588 235.595,47.629 232.895,47.200 231.229 C 46.770 229.563,45.869 226.595,45.197 224.632 C 44.525 222.670,43.609 218.813,43.162 216.062 C 42.715 213.311,41.904 208.886,41.360 206.230 C 39.231 195.829,39.245 175.574,41.388 165.035 C 41.928 162.376,42.736 157.990,43.182 155.288 C 43.628 152.587,44.609 148.537,45.361 146.288 C 46.112 144.040,47.023 141.060,47.383 139.668 C 47.744 138.275,48.498 136.115,49.060 134.868 C 49.622 133.620,50.499 131.394,51.010 129.919 C 51.521 128.445,52.570 126.105,53.340 124.719 C 54.110 123.334,55.060 121.390,55.451 120.400 C 56.126 118.688,57.533 116.196,61.875 109.018 C 63.800 105.837,64.403 104.974,70.063 97.305 C 76.974 87.941,87.840 77.154,97.600 69.967 C 105.446 64.190,104.801 64.614,114.163 59.090 C 115.943 58.040,118.570 56.646,120.000 55.993 C 121.430 55.339,123.655 54.245,124.945 53.562 C 126.235 52.878,128.755 51.816,130.545 51.201 C 132.335 50.586,134.836 49.616,136.103 49.045 C 137.370 48.474,139.620 47.716,141.103 47.360 C 142.586 47.004,145.775 46.088,148.188 45.325 C 150.952 44.452,154.728 43.653,158.388 43.168 C 161.585 42.745,165.617 42.112,167.350 41.763 C 173.447 40.532,186.824 40.073,195.132 40.808 M321.109 64.436 C 322.049 65.433,322.679 66.402,322.509 66.588 C 322.339 66.775,322.405 66.811,322.655 66.668 C 323.248 66.330,325.360 69.054,324.782 69.411 C 324.490 69.591,324.489 69.825,324.777 70.172 C 325.006 70.448,325.060 70.831,324.897 71.024 C 324.733 71.216,324.899 71.146,325.264 70.867 C 325.721 70.519,326.011 70.494,326.192 70.787 C 326.337 71.021,326.623 71.109,326.828 70.983 C 327.032 70.856,327.200 70.943,327.200 71.176 C 327.200 71.871,327.019 72.206,326.700 72.100 C 326.535 72.045,326.400 72.199,326.400 72.443 C 326.400 72.686,326.641 72.793,326.936 72.680 C 327.641 72.410,328.520 72.973,328.637 73.770 C 328.688 74.119,328.563 74.301,328.358 74.174 C 328.154 74.048,328.091 73.777,328.217 73.572 C 328.344 73.368,328.147 73.200,327.781 73.200 C 327.363 73.200,327.197 73.416,327.337 73.780 C 327.485 74.167,327.367 74.285,326.980 74.137 C 326.539 73.968,326.400 74.262,326.400 75.357 C 326.400 76.151,326.591 76.800,326.824 76.800 C 327.057 76.800,327.133 76.985,326.994 77.210 C 326.854 77.436,327.279 77.808,327.937 78.038 C 328.930 78.384,329.213 78.786,329.599 80.397 C 329.982 81.991,330.301 82.452,331.378 82.963 C 333.249 83.851,333.487 84.276,333.809 87.315 C 334.065 89.733,334.216 90.091,335.192 90.596 C 336.258 91.147,336.890 92.274,337.370 94.478 C 337.499 95.071,338.310 96.371,339.171 97.367 C 340.288 98.657,340.867 99.798,341.187 101.335 C 341.466 102.682,342.000 103.836,342.607 104.407 C 343.559 105.301,344.278 106.945,345.159 110.244 C 345.401 111.148,346.143 112.573,346.808 113.411 C 347.474 114.248,348.123 115.398,348.251 115.966 C 349.174 120.068,349.795 121.958,350.809 123.755 C 351.449 124.888,352.250 127.135,352.589 128.747 C 352.928 130.359,353.725 132.876,354.359 134.339 C 354.993 135.803,355.823 138.710,356.203 140.800 C 356.991 145.137,357.565 147.693,358.740 152.099 C 360.801 159.827,362.047 182.601,361.208 197.209 C 360.587 208.021,360.689 208.533,364.146 211.947 C 366.166 213.942,366.436 214.079,368.746 214.289 C 370.096 214.411,371.200 214.647,371.200 214.813 C 371.200 214.979,371.440 215.207,371.733 215.319 C 372.027 215.432,372.267 215.279,372.267 214.979 C 372.267 214.680,372.117 214.528,371.933 214.641 C 371.349 215.002,371.576 214.518,372.255 213.955 C 372.845 213.465,372.892 213.558,372.735 214.906 C 372.613 215.954,372.716 216.400,373.080 216.400 C 373.366 216.400,373.600 216.601,373.600 216.847 C 373.600 217.092,373.937 217.205,374.349 217.097 C 374.926 216.947,375.053 217.074,374.903 217.651 C 374.795 218.063,374.470 218.400,374.181 218.400 C 372.937 218.400,373.729 222.160,375.317 223.796 C 376.133 224.636,376.813 225.610,376.829 225.961 C 376.993 229.649,377.410 231.241,378.797 233.476 C 379.683 234.903,380.198 236.546,380.789 239.835 C 381.227 242.274,381.847 244.894,382.166 245.657 C 384.507 251.260,384.643 267.425,382.405 274.200 C 381.969 275.520,381.247 278.387,380.801 280.572 C 380.269 283.170,379.525 285.383,378.646 286.972 C 377.908 288.307,377.000 290.335,376.627 291.477 C 376.255 292.620,375.525 294.150,375.005 294.877 C 373.611 296.828,370.168 303.240,369.873 304.434 C 369.733 305.003,369.591 316.253,369.559 329.434 C 369.466 367.461,368.931 369.744,358.200 377.921 C 352.490 382.272,341.532 384.549,336.521 382.426 C 335.464 381.979,333.079 381.255,331.220 380.817 C 329.055 380.307,327.245 379.594,326.183 378.831 C 325.271 378.176,323.362 377.202,321.940 376.667 C 320.518 376.132,318.318 375.109,317.051 374.394 C 314.176 372.772,311.596 372.869,308.299 374.723 C 307.145 375.372,305.210 376.217,304.000 376.600 C 302.790 376.983,300.838 377.837,299.663 378.499 C 292.811 382.354,282.290 384.146,276.736 382.405 C 272.770 381.162,269.426 381.584,268.180 383.486 L 267.549 384.449 266.075 383.617 L 264.600 382.784 265.800 383.805 C 266.680 384.554,266.787 384.761,266.200 384.581 C 265.302 384.306,265.877 384.877,269.442 387.800 C 270.515 388.680,271.844 389.810,272.396 390.311 C 272.948 390.813,274.660 391.851,276.200 392.619 C 277.740 393.387,279.833 394.460,280.852 395.003 C 285.882 397.684,298.223 397.417,302.737 394.530 C 304.060 393.683,306.001 392.878,307.451 392.575 C 309.773 392.089,311.146 391.491,314.354 389.567 C 315.560 388.845,316.797 388.473,320.458 387.735 C 321.900 387.444,327.953 389.022,328.974 389.954 C 330.217 391.091,332.923 392.346,334.766 392.641 C 335.668 392.785,337.180 393.394,338.126 393.994 C 343.879 397.643,358.227 397.773,362.455 394.215 C 363.106 393.667,364.515 392.959,365.588 392.641 C 368.926 391.649,373.451 388.139,375.901 384.638 C 376.502 383.779,377.478 382.559,378.068 381.927 C 379.333 380.573,380.649 376.774,381.021 373.400 C 381.177 371.989,381.804 369.932,382.543 368.409 L 383.800 365.818 384.000 338.609 C 384.200 311.434,384.201 311.398,385.080 310.000 C 387.104 306.780,388.800 303.690,388.800 303.223 C 388.800 302.948,389.137 302.246,389.549 301.662 C 391.160 299.377,392.329 296.472,392.761 293.682 C 393.032 291.935,393.595 290.169,394.164 289.282 C 396.490 285.657,396.600 284.716,396.600 268.400 C 396.600 252.060,396.530 251.504,393.951 247.323 C 393.517 246.620,392.987 244.910,392.772 243.523 C 392.278 240.344,391.755 238.984,390.301 237.107 C 389.665 236.286,388.860 234.617,388.514 233.397 C 388.128 232.040,387.306 230.523,386.398 229.490 C 385.582 228.560,384.509 226.990,384.013 226.000 C 382.946 223.867,379.927 219.628,378.100 217.695 C 377.385 216.939,376.800 216.219,376.800 216.096 C 376.800 215.973,376.064 214.898,375.164 213.706 C 373.474 211.467,373.420 210.467,374.888 208.534 C 376.683 206.170,376.215 184.962,374.215 178.000 C 373.407 175.189,373.169 173.111,372.839 166.000 C 372.421 157.002,371.943 154.545,370.002 151.403 C 369.421 150.463,369.074 148.881,368.789 145.881 C 368.372 141.479,367.756 139.476,366.186 137.417 C 365.594 136.641,365.085 135.181,364.813 133.482 C 364.279 130.141,363.035 126.737,362.009 125.808 C 361.553 125.395,360.967 123.906,360.584 122.187 C 360.108 120.047,359.581 118.855,358.610 117.720 C 357.780 116.751,356.963 115.091,356.423 113.278 C 355.911 111.558,355.079 109.835,354.373 109.031 C 353.720 108.287,352.993 107.075,352.757 106.339 C 352.055 104.141,351.046 102.234,350.286 101.668 C 349.893 101.375,348.847 99.665,347.960 97.868 C 347.073 96.070,346.020 94.240,345.621 93.800 C 345.221 93.360,344.593 92.405,344.225 91.678 C 343.858 90.951,342.847 89.625,341.979 88.730 C 341.110 87.835,340.400 86.900,340.400 86.652 C 340.399 86.403,339.934 85.660,339.365 85.000 C 338.797 84.340,337.495 82.540,336.472 81.000 C 335.450 79.460,334.240 77.840,333.784 77.400 C 333.327 76.960,332.546 75.928,332.048 75.107 C 331.550 74.285,330.751 73.295,330.271 72.907 C 329.792 72.518,328.873 71.424,328.229 70.476 C 327.585 69.528,326.685 68.573,326.229 68.354 C 325.423 67.967,325.421 67.973,326.171 68.574 C 326.595 68.914,326.847 69.286,326.732 69.401 C 326.452 69.681,324.400 68.050,324.400 67.547 C 324.400 67.330,324.608 67.281,324.862 67.438 C 325.150 67.616,325.215 67.548,325.034 67.255 C 324.875 66.998,324.606 66.872,324.437 66.977 C 324.042 67.221,321.115 64.240,321.392 63.875 C 321.506 63.724,321.480 63.690,321.332 63.801 C 321.185 63.911,320.690 63.691,320.232 63.312 C 319.775 62.933,320.169 63.439,321.109 64.436 M326.800 70.038 C 326.800 69.311,327.530 69.904,328.179 71.159 C 328.649 72.069,328.656 72.267,328.214 72.267 C 327.918 72.267,327.757 72.056,327.856 71.797 C 327.955 71.539,327.758 71.097,327.418 70.815 C 327.078 70.533,326.800 70.436,326.800 70.600 C 326.800 70.764,326.530 70.674,326.200 70.400 C 325.870 70.126,325.600 70.025,325.600 70.175 C 325.600 70.325,325.417 70.334,325.193 70.196 C 324.970 70.058,324.898 69.765,325.033 69.546 C 325.181 69.307,325.582 69.422,326.040 69.836 C 326.525 70.275,326.800 70.348,326.800 70.038 M375.467 214.971 L 376.082 216.200 374.857 214.800 C 373.561 213.318,373.173 212.347,374.226 213.222 C 374.571 213.508,375.129 214.295,375.467 214.971 M374.588 215.619 C 374.482 215.791,374.621 216.034,374.898 216.159 C 375.174 216.284,375.040 216.341,374.600 216.286 C 374.160 216.232,373.795 215.920,373.789 215.593 C 373.784 215.267,373.618 214.730,373.421 214.400 C 373.198 214.026,373.387 214.084,373.922 214.553 C 374.394 214.968,374.694 215.447,374.588 215.619 M54.600 313.200 C 55.683 314.300,56.660 315.200,56.770 315.200 C 56.880 315.200,56.083 314.300,55.000 313.200 C 53.917 312.100,52.940 311.200,52.830 311.200 C 52.720 311.200,53.517 312.100,54.600 313.200 M61.607 319.775 C 62.154 320.489,62.137 320.527,61.400 320.253 C 60.936 320.081,61.433 320.804,62.580 321.973 C 63.669 323.082,64.669 323.812,64.803 323.595 C 64.951 323.356,65.354 323.450,65.824 323.833 C 66.523 324.402,66.528 324.443,65.875 324.236 C 65.477 324.109,66.017 324.904,67.075 326.001 C 69.222 328.226,69.277 328.266,68.926 327.350 C 68.703 326.771,68.791 326.776,69.735 327.394 C 70.317 327.775,70.713 328.218,70.615 328.376 C 70.383 328.751,74.308 332.625,74.612 332.321 C 74.739 332.195,74.355 331.708,73.759 331.239 C 73.101 330.721,72.653 329.958,72.617 329.294 C 72.585 328.692,72.343 328.178,72.079 328.150 C 71.816 328.123,71.409 328.078,71.176 328.050 C 70.943 328.023,70.881 327.792,71.038 327.538 C 71.214 327.254,71.148 327.185,70.867 327.359 C 70.387 327.655,66.553 324.057,66.724 323.470 C 66.777 323.289,66.637 323.254,66.414 323.392 C 66.190 323.530,65.331 322.949,64.504 322.101 C 62.507 320.054,60.726 318.624,61.607 319.775 M63.600 321.800 C 64.346 322.570,64.867 323.200,64.757 323.200 C 64.647 323.200,63.946 322.570,63.200 321.800 C 62.454 321.030,61.933 320.400,62.043 320.400 C 62.153 320.400,62.854 321.030,63.600 321.800 M67.825 325.700 L 69.000 327.000 67.700 325.825 C 66.488 324.730,66.216 324.400,66.525 324.400 C 66.594 324.400,67.179 324.985,67.825 325.700 M72.267 329.080 C 72.267 329.747,72.078 329.735,71.367 329.025 C 70.867 328.524,70.888 328.456,71.529 328.505 C 71.935 328.535,72.267 328.794,72.267 329.080 M74.195 328.808 C 74.079 328.996,74.212 329.297,74.492 329.475 C 74.771 329.654,75.030 330.144,75.066 330.564 C 75.120 331.184,74.963 331.115,74.231 330.198 C 73.681 329.509,73.226 329.235,73.064 329.497 C 72.917 329.734,73.383 330.422,74.099 331.028 C 74.815 331.633,75.363 332.257,75.317 332.413 C 75.169 332.920,77.998 335.945,78.882 336.226 C 79.355 336.376,80.205 336.934,80.771 337.467 C 81.337 337.999,82.790 339.094,84.000 339.901 C 85.210 340.707,87.004 341.979,87.987 342.727 C 88.970 343.474,90.198 344.247,90.717 344.444 C 91.236 344.642,92.502 345.502,93.530 346.357 C 94.559 347.212,95.850 348.044,96.400 348.205 C 96.950 348.366,98.480 349.253,99.800 350.176 C 101.120 351.099,102.746 352.072,103.413 352.339 C 104.080 352.606,105.160 353.291,105.813 353.860 C 107.052 354.939,109.378 356.071,111.361 356.560 C 112.000 356.717,113.332 357.403,114.320 358.083 C 115.309 358.763,117.306 359.728,118.759 360.228 C 120.211 360.727,122.775 361.855,124.455 362.734 C 126.438 363.771,128.328 364.433,129.843 364.623 C 131.125 364.783,132.721 365.250,133.388 365.660 C 136.507 367.580,138.845 368.376,142.472 368.751 C 145.417 369.055,146.836 369.439,149.229 370.579 C 152.722 372.243,154.861 372.633,162.588 373.015 C 167.277 373.247,168.517 373.447,170.295 374.261 C 174.178 376.037,176.023 376.195,192.800 376.198 C 209.683 376.200,212.135 375.993,216.063 374.231 C 217.899 373.408,219.217 373.215,225.425 372.859 C 232.941 372.428,235.938 371.749,238.432 369.911 C 239.149 369.383,240.568 369.047,243.083 368.811 C 245.074 368.624,247.727 368.149,248.978 367.754 C 250.950 367.133,251.304 367.115,251.638 367.619 C 251.909 368.027,251.951 367.842,251.780 367.000 C 251.585 366.045,251.629 365.923,251.994 366.400 C 252.371 366.894,252.410 366.848,252.212 366.140 C 252.066 365.619,252.288 364.752,252.775 363.940 C 255.287 359.754,256.000 357.385,256.000 353.225 C 256.000 348.764,253.938 348.013,248.797 350.601 C 247.300 351.355,244.843 352.277,243.338 352.649 C 241.832 353.022,239.282 353.849,237.671 354.488 C 236.061 355.127,232.726 356.068,230.262 356.579 C 227.797 357.090,224.255 357.990,222.390 358.580 C 214.647 361.027,186.429 363.099,175.189 362.045 C 172.665 361.809,167.360 361.330,163.400 360.982 C 154.154 360.170,149.373 359.417,146.722 358.357 C 145.555 357.891,142.250 357.100,139.379 356.600 C 135.757 355.969,133.428 355.327,131.779 354.503 C 130.470 353.849,128.050 352.998,126.400 352.612 C 124.750 352.225,122.474 351.399,121.343 350.775 C 120.211 350.152,117.786 349.268,115.953 348.812 C 113.581 348.222,112.271 347.654,111.410 346.843 C 110.542 346.026,109.327 345.504,107.113 344.995 C 104.631 344.425,103.795 344.033,102.850 342.995 C 102.104 342.175,101.118 341.599,100.151 341.417 C 98.100 341.032,96.815 340.322,95.505 338.849 C 94.427 337.637,94.049 337.478,91.134 337.011 C 90.186 336.859,89.188 336.282,88.307 335.375 C 87.377 334.418,86.447 333.897,85.373 333.733 C 83.607 333.462,82.400 332.603,82.400 331.618 C 82.400 330.613,81.570 329.999,80.220 330.005 C 78.526 330.013,77.166 330.422,77.428 330.845 C 77.549 331.040,77.347 331.200,76.981 331.200 C 76.553 331.200,76.397 331.415,76.545 331.800 C 76.881 332.676,76.499 332.533,75.997 331.594 C 75.671 330.985,75.686 330.814,76.059 330.894 C 76.330 330.952,76.618 330.703,76.698 330.340 C 76.857 329.618,74.563 328.213,74.195 328.808 " stroke="none" fill="#55426c" fill-rule="evenodd"></path><path id="path2" d="M179.905 3.883 C 180.402 3.979,181.122 3.975,181.505 3.875 C 181.887 3.775,181.480 3.696,180.600 3.701 C 179.720 3.705,179.407 3.787,179.905 3.883 M189.700 3.876 C 190.085 3.976,190.715 3.976,191.100 3.876 C 191.485 3.775,191.170 3.693,190.400 3.693 C 189.630 3.693,189.315 3.775,189.700 3.876 M173.481 28.828 C 171.325 29.010,168.085 29.435,166.281 29.773 C 164.476 30.111,160.242 30.755,156.872 31.204 C 153.302 31.680,149.212 32.511,147.072 33.194 C 145.052 33.839,141.799 34.739,139.843 35.193 C 137.886 35.648,134.889 36.633,133.183 37.383 C 131.477 38.134,129.298 38.953,128.340 39.203 C 124.977 40.085,110.432 47.061,106.132 49.856 C 104.995 50.595,103.959 51.200,103.831 51.200 C 103.382 51.200,95.309 56.696,91.441 59.635 C 89.294 61.266,87.094 62.890,86.551 63.245 C 83.317 65.361,70.171 78.251,64.487 84.882 C 57.802 92.679,47.486 108.475,44.163 116.000 C 43.823 116.770,42.673 119.200,41.607 121.400 C 40.541 123.600,39.462 126.183,39.208 127.140 C 38.955 128.098,38.144 130.258,37.407 131.940 C 36.669 133.623,35.520 136.980,34.852 139.400 C 34.184 141.820,33.188 145.278,32.637 147.083 C 32.086 148.889,31.355 152.399,31.011 154.883 C 30.667 157.368,29.939 161.583,29.392 164.250 C 27.102 175.425,27.203 196.952,29.601 208.604 C 30.044 210.757,30.757 214.805,31.185 217.598 C 31.613 220.392,32.498 224.287,33.151 226.254 C 33.805 228.221,34.717 231.308,35.178 233.115 C 35.640 234.922,36.627 237.795,37.373 239.500 C 38.118 241.205,38.941 243.400,39.201 244.378 C 40.315 248.572,49.969 266.790,54.772 273.761 C 57.870 278.259,65.077 287.569,67.186 289.800 C 68.434 291.120,70.433 293.262,71.628 294.560 C 78.960 302.526,101.965 320.800,104.661 320.800 C 104.759 320.800,105.790 321.409,106.952 322.152 C 111.478 325.047,126.169 331.918,130.600 333.212 C 131.920 333.598,133.900 334.312,135.000 334.800 C 137.646 335.973,138.695 336.283,143.200 337.226 C 145.290 337.664,148.348 338.487,149.996 339.055 C 152.047 339.763,155.138 340.328,159.796 340.846 C 163.538 341.262,167.050 341.692,167.600 341.801 C 168.577 341.994,174.391 342.516,181.200 343.021 C 185.161 343.315,197.312 342.628,202.800 341.801 C 204.890 341.486,208.490 341.048,210.800 340.826 C 213.110 340.605,216.350 340.056,218.000 339.605 C 219.650 339.155,222.890 338.325,225.200 337.762 C 227.510 337.198,230.930 336.194,232.800 335.531 C 234.670 334.867,237.730 333.831,239.600 333.227 C 241.470 332.624,243.900 331.676,245.000 331.121 C 246.100 330.566,248.234 329.624,249.742 329.027 C 252.167 328.066,255.407 326.397,264.800 321.267 C 266.230 320.486,268.235 319.249,269.255 318.518 C 275.732 313.879,275.997 314.679,276.009 338.920 C 276.019 358.774,275.981 358.496,278.982 361.130 C 282.486 364.207,285.461 363.821,295.505 358.984 C 297.543 358.003,299.399 357.200,299.628 357.200 C 299.858 357.200,302.241 356.183,304.923 354.941 C 312.154 351.592,315.573 351.574,321.514 354.855 C 322.677 355.497,324.567 356.387,325.714 356.832 C 326.861 357.278,329.240 358.340,331.000 359.193 C 341.807 364.431,346.519 364.273,349.085 358.585 C 349.745 357.122,349.815 354.709,350.000 327.200 C 350.226 293.563,349.863 297.107,353.607 292.000 C 356.336 288.278,359.847 282.039,360.618 279.540 C 360.982 278.363,361.798 275.780,362.433 273.800 C 368.176 255.878,361.162 234.370,345.301 221.263 C 340.052 216.927,339.634 216.015,340.378 210.536 C 342.913 191.869,341.990 161.607,338.590 151.972 C 338.297 151.140,337.597 148.279,337.035 145.614 C 336.473 142.948,335.498 139.470,334.868 137.884 C 334.238 136.298,333.331 133.701,332.853 132.113 C 332.375 130.524,331.382 127.914,330.645 126.313 C 329.909 124.711,329.174 122.950,329.013 122.400 C 328.851 121.850,328.052 120.140,327.236 118.600 C 326.420 117.060,325.409 114.990,324.988 114.000 C 323.697 110.962,316.863 99.787,313.321 94.922 C 308.730 88.617,307.403 86.931,303.467 82.400 C 294.062 71.573,282.415 61.440,271.000 54.154 C 263.435 49.324,261.949 48.469,256.400 45.752 C 245.957 40.637,243.778 39.655,241.400 38.993 C 240.080 38.626,238.010 37.874,236.800 37.322 C 235.590 36.770,232.260 35.711,229.400 34.968 C 226.540 34.226,222.760 33.184,221.000 32.653 C 219.240 32.123,215.820 31.476,213.400 31.217 C 210.981 30.957,207.201 30.394,205.000 29.964 C 197.793 28.558,183.000 28.025,173.481 28.828 M193.125 30.419 C 198.714 30.818,214.274 32.583,216.400 33.059 C 216.950 33.183,218.818 33.719,220.550 34.251 C 222.283 34.783,225.433 35.592,227.550 36.047 C 229.668 36.503,232.851 37.474,234.625 38.205 C 236.399 38.936,238.919 39.840,240.225 40.214 C 252.447 43.716,274.667 57.152,288.200 69.225 C 305.333 84.509,323.466 109.672,328.394 125.000 C 328.677 125.880,329.249 127.278,329.666 128.106 C 331.016 130.793,335.233 143.980,336.203 148.551 C 336.723 150.998,337.529 154.702,337.995 156.782 C 340.694 168.828,341.247 198.133,338.991 209.600 C 337.833 215.488,338.311 217.269,341.845 220.236 C 365.161 239.810,369.519 267.819,352.764 290.416 C 351.489 292.136,350.030 294.322,349.522 295.272 L 348.600 297.000 348.400 327.200 C 348.255 349.030,348.072 357.622,347.737 358.200 C 345.423 362.196,340.883 362.173,332.400 358.124 C 330.310 357.126,327.719 355.963,326.643 355.538 C 325.566 355.114,323.946 354.338,323.043 353.815 C 316.396 349.966,311.236 350.015,303.200 354.001 C 301.550 354.819,299.480 355.719,298.600 356.000 C 297.720 356.281,295.650 357.181,294.000 357.999 C 287.125 361.409,283.048 362.094,280.625 360.246 C 277.721 358.031,277.824 358.820,277.591 337.000 C 277.323 311.813,277.190 311.500,269.033 316.855 C 253.630 326.967,233.625 334.907,213.200 339.015 C 196.711 342.331,165.741 341.580,150.200 337.486 C 147.340 336.733,143.560 335.746,141.800 335.294 C 132.645 332.941,116.686 326.235,108.400 321.258 C 82.143 305.488,65.728 289.274,50.558 264.123 C 47.351 258.805,40.750 245.128,40.171 242.600 C 40.020 241.940,39.216 239.780,38.384 237.800 C 37.553 235.820,36.490 232.580,36.022 230.600 C 35.553 228.620,34.648 225.365,34.008 223.368 C 33.369 221.370,32.554 217.590,32.197 214.968 C 31.839 212.345,31.199 208.040,30.774 205.400 C 28.963 194.165,28.893 176.906,30.619 167.095 C 30.937 165.283,31.570 161.113,32.023 157.829 C 32.477 154.545,33.370 150.225,34.008 148.229 C 34.645 146.233,35.536 143.012,35.987 141.070 C 36.438 139.129,37.361 136.249,38.038 134.670 C 38.715 133.092,39.627 130.630,40.063 129.200 C 41.250 125.313,47.534 112.292,50.681 107.200 C 54.271 101.390,56.806 97.476,58.111 95.723 C 58.899 94.665,60.778 92.153,62.286 90.139 C 74.846 73.368,95.920 56.122,115.600 46.508 C 123.013 42.886,127.482 40.933,130.455 40.015 C 131.916 39.564,134.145 38.738,135.408 38.180 C 136.671 37.621,139.976 36.635,142.752 35.989 C 145.529 35.343,149.240 34.381,151.000 33.852 C 159.052 31.432,181.584 29.596,193.125 30.419 M175.000 43.855 C 165.876 44.468,156.917 45.694,153.459 46.801 C 151.430 47.451,148.009 48.345,145.857 48.788 C 143.706 49.231,140.562 50.200,138.873 50.941 C 137.183 51.683,134.731 52.600,133.424 52.978 C 132.117 53.357,129.784 54.303,128.240 55.081 C 126.695 55.859,124.724 56.745,123.860 57.050 C 122.227 57.625,117.862 60.029,111.000 64.131 C 92.258 75.334,76.101 91.374,63.791 110.997 C 60.377 116.438,53.795 129.402,52.931 132.386 C 52.578 133.604,51.693 135.959,50.965 137.620 C 50.236 139.281,49.190 142.521,48.641 144.820 C 48.092 147.119,47.180 150.345,46.615 151.990 C 45.463 155.340,43.544 169.192,42.809 179.470 C 42.343 185.989,42.703 194.321,43.810 202.600 C 44.133 205.020,44.655 209.070,44.968 211.600 C 45.282 214.130,46.085 217.910,46.753 220.000 C 47.420 222.090,48.342 225.414,48.800 227.386 C 49.258 229.359,50.240 232.329,50.982 233.986 C 51.724 235.644,52.596 237.910,52.920 239.021 C 53.634 241.467,58.760 252.032,61.643 257.000 C 62.792 258.980,64.331 262.028,65.061 263.773 C 68.941 273.038,84.136 289.807,98.446 300.615 C 102.493 303.672,104.461 304.806,108.736 306.543 C 110.129 307.109,112.379 308.260,113.735 309.100 C 118.435 312.014,131.602 318.214,135.486 319.343 C 136.634 319.676,139.154 320.578,141.086 321.346 C 143.019 322.115,145.770 322.946,147.200 323.193 C 148.630 323.440,152.140 324.252,155.000 324.997 C 170.034 328.912,200.697 329.010,214.400 325.188 C 216.710 324.543,220.118 323.729,221.973 323.379 C 223.829 323.028,227.159 322.056,229.373 321.219 C 231.588 320.382,234.480 319.391,235.800 319.017 C 237.120 318.643,238.967 317.892,239.905 317.349 C 240.843 316.805,242.823 315.904,244.305 315.347 C 245.787 314.790,248.014 313.719,249.252 312.967 C 250.491 312.215,251.674 311.600,251.882 311.600 C 252.917 311.600,265.360 303.674,270.509 299.735 C 279.796 292.630,280.261 292.373,284.508 291.994 C 289.023 291.592,288.997 291.220,284.013 285.049 C 268.321 265.618,274.677 237.500,297.220 226.618 C 303.288 223.689,310.782 222.771,320.554 223.759 L 324.107 224.119 323.848 221.959 C 323.556 219.526,324.208 214.871,325.774 208.200 C 327.972 198.835,327.996 173.293,325.816 163.200 C 325.269 160.670,324.350 156.260,323.774 153.400 C 322.660 147.873,318.517 134.861,316.386 130.200 C 314.064 125.119,309.567 116.250,307.765 113.200 C 306.791 111.550,305.433 108.850,304.748 107.200 C 300.056 95.898,277.005 72.495,264.745 66.586 C 262.685 65.593,260.460 64.489,259.800 64.133 C 251.999 59.922,247.068 57.379,245.514 56.766 C 244.477 56.357,242.677 55.496,241.514 54.851 C 240.351 54.207,238.320 53.375,237.000 53.003 C 235.680 52.632,233.091 51.705,231.247 50.944 C 229.403 50.183,226.253 49.219,224.247 48.803 C 222.241 48.386,218.829 47.497,216.664 46.827 C 209.676 44.663,187.023 43.048,175.000 43.855 M316.200 60.000 C 316.598 60.440,316.778 60.800,316.600 60.800 C 316.422 60.800,316.574 61.130,316.939 61.532 C 317.303 61.935,317.495 62.372,317.364 62.502 C 317.234 62.633,317.458 62.685,317.863 62.619 C 318.269 62.552,319.050 62.876,319.600 63.339 C 320.150 63.803,319.526 63.061,318.213 61.691 C 316.019 59.402,314.517 58.141,316.200 60.000 M320.424 66.175 L 319.508 67.150 320.914 67.075 C 322.276 67.002,322.618 66.400,321.296 66.400 C 320.799 66.400,320.752 66.288,321.103 65.937 C 321.454 65.586,321.719 65.601,322.196 65.997 C 323.023 66.683,322.761 67.380,321.675 67.391 C 321.199 67.396,320.853 67.580,320.905 67.800 C 320.957 68.020,321.323 68.185,321.717 68.166 C 322.150 68.146,322.355 68.339,322.235 68.654 C 322.125 68.940,322.210 69.283,322.424 69.415 C 322.638 69.547,322.708 69.826,322.579 70.034 C 322.450 70.243,322.202 70.325,322.028 70.217 C 321.854 70.110,321.858 70.782,322.038 71.711 C 322.218 72.640,322.373 73.565,322.383 73.767 C 322.392 73.968,322.511 74.022,322.648 73.886 C 322.784 73.750,323.138 73.855,323.434 74.119 C 323.730 74.384,324.248 74.832,324.586 75.116 C 324.924 75.399,325.200 76.095,325.200 76.662 C 325.200 77.332,325.698 78.149,326.625 78.997 C 327.409 79.715,328.567 81.395,329.199 82.731 C 329.830 84.067,330.726 85.394,331.189 85.680 C 331.690 85.989,332.290 87.091,332.671 88.400 C 333.024 89.610,333.911 91.300,334.643 92.156 C 335.374 93.012,336.269 94.604,336.631 95.693 C 336.993 96.782,337.813 98.270,338.453 98.999 C 339.093 99.729,339.974 101.363,340.410 102.630 C 340.847 103.898,341.728 105.760,342.368 106.768 C 343.008 107.775,343.739 109.410,343.992 110.400 C 344.245 111.390,345.092 113.253,345.875 114.539 C 346.657 115.825,347.703 118.351,348.198 120.153 C 348.694 121.954,349.561 124.339,350.125 125.453 C 350.690 126.567,351.517 128.901,351.962 130.639 C 352.408 132.378,353.241 135.150,353.813 136.800 C 354.820 139.703,357.802 153.243,359.055 160.600 C 360.051 166.449,360.349 174.423,360.206 191.400 C 360.131 200.200,360.173 207.932,360.297 208.582 C 360.648 210.406,365.471 215.064,367.379 215.422 C 368.517 215.636,369.085 216.038,369.684 217.053 C 370.121 217.794,370.709 218.400,370.991 218.400 C 371.877 218.400,372.443 219.470,373.024 222.247 C 373.334 223.727,374.043 225.596,374.600 226.400 C 375.157 227.203,375.978 229.179,376.424 230.790 C 376.870 232.400,377.666 234.457,378.192 235.359 C 378.717 236.262,379.511 238.800,379.954 241.000 C 380.398 243.200,381.238 247.250,381.821 250.000 C 383.059 255.836,383.046 266.160,381.795 271.200 C 381.440 272.630,380.718 275.906,380.190 278.479 C 379.574 281.486,378.745 284.132,377.871 285.879 C 377.124 287.376,376.207 289.532,375.833 290.671 C 375.460 291.810,374.625 293.474,373.977 294.368 C 373.330 295.262,372.800 296.082,372.800 296.191 C 372.800 296.300,371.855 297.964,370.700 299.890 L 368.600 303.391 368.363 332.395 C 368.098 364.793,368.239 363.204,365.172 368.444 C 362.941 372.257,361.330 374.077,357.715 376.872 C 349.933 382.888,336.121 383.309,326.988 377.810 C 325.701 377.034,324.436 376.400,324.178 376.400 C 323.920 376.400,322.109 375.608,320.154 374.641 C 313.990 371.589,312.152 371.519,306.933 374.138 C 305.430 374.892,303.480 375.730,302.600 375.999 C 301.720 376.269,299.917 377.085,298.592 377.813 C 292.961 380.908,285.038 382.343,278.844 381.389 C 276.445 381.020,273.608 380.817,272.541 380.938 C 269.925 381.236,266.505 381.874,267.000 381.972 C 267.220 382.015,266.983 382.218,266.474 382.422 C 265.965 382.626,265.660 382.974,265.797 383.194 C 266.115 383.710,267.645 384.536,267.506 384.117 C 266.841 382.123,272.847 380.945,277.297 382.197 C 282.878 383.767,293.069 382.022,299.368 378.418 C 300.565 377.734,302.501 376.893,303.672 376.549 C 304.842 376.206,306.725 375.400,307.855 374.759 C 311.630 372.617,314.750 372.559,317.967 374.571 C 318.755 375.064,320.714 375.966,322.320 376.576 C 323.926 377.186,325.768 378.129,326.413 378.672 C 327.170 379.309,329.149 380.069,331.993 380.816 C 334.417 381.451,336.724 382.145,337.119 382.357 C 341.198 384.540,352.759 381.860,358.622 377.371 C 362.656 374.284,363.665 373.025,367.197 366.669 C 368.906 363.595,369.184 358.660,369.194 331.200 C 369.206 301.448,368.842 303.995,374.257 295.779 C 374.989 294.667,375.927 292.777,376.341 291.579 C 376.755 290.380,377.714 288.230,378.473 286.800 C 379.232 285.370,380.082 283.030,380.362 281.600 C 380.641 280.170,381.394 277.095,382.034 274.766 C 384.335 266.397,384.484 255.276,382.400 247.600 C 381.952 245.950,381.147 242.462,380.612 239.849 C 379.951 236.622,379.319 234.634,378.640 233.649 C 377.680 232.256,377.056 230.267,376.590 227.121 C 376.463 226.257,375.795 224.951,374.986 223.983 C 373.658 222.394,372.783 217.448,373.958 218.174 C 374.155 218.296,374.427 218.106,374.563 217.753 C 374.739 217.294,374.636 217.177,374.205 217.343 C 373.409 217.648,372.400 217.243,372.400 216.619 C 372.400 216.347,372.043 215.800,371.606 215.405 C 370.895 214.762,370.204 214.604,367.400 214.445 C 366.313 214.383,361.750 210.088,361.192 208.600 C 360.671 207.213,360.666 204.286,361.167 194.000 C 361.855 179.844,360.135 155.817,358.038 150.301 C 357.813 149.709,357.153 146.745,356.570 143.713 C 355.987 140.681,354.920 136.670,354.198 134.800 C 353.476 132.930,352.669 130.320,352.405 129.000 C 352.141 127.680,351.339 125.430,350.622 124.000 C 349.906 122.570,349.002 120.050,348.614 118.400 C 348.177 116.544,347.483 114.857,346.795 113.975 C 345.740 112.623,344.400 109.407,344.400 108.226 C 344.400 107.926,343.770 106.744,342.999 105.599 C 342.229 104.454,341.308 102.518,340.953 101.296 C 340.598 100.075,339.882 98.681,339.362 98.199 C 338.360 97.272,336.824 94.237,336.809 93.158 C 336.799 92.464,335.250 90.617,334.455 90.352 C 334.186 90.262,333.805 89.048,333.607 87.653 C 333.231 84.990,332.566 83.913,330.701 82.949 C 329.958 82.565,329.600 82.063,329.600 81.409 C 329.600 79.944,328.761 78.400,327.964 78.400 C 326.071 78.400,325.368 75.229,326.898 73.587 C 327.511 72.929,327.530 72.800,327.016 72.800 C 326.380 72.800,326.202 72.331,326.663 71.870 C 326.808 71.725,327.204 71.830,327.544 72.103 C 328.622 72.970,327.268 71.234,324.400 68.073 C 321.426 64.795,321.629 64.892,320.424 66.175 M326.800 71.365 C 326.800 71.593,326.610 71.570,326.351 71.311 C 326.104 71.064,325.691 70.944,325.432 71.043 C 324.731 71.312,323.003 69.281,322.981 68.163 C 322.964 67.265,323.110 67.336,324.881 69.080 C 325.937 70.120,326.800 71.148,326.800 71.365 M323.200 68.702 C 323.200 68.922,323.470 69.326,323.800 69.600 C 324.135 69.878,324.400 69.921,324.400 69.698 C 324.400 69.478,324.130 69.074,323.800 68.800 C 323.465 68.522,323.200 68.479,323.200 68.702 M269.646 71.995 C 283.200 81.808,300.800 101.023,300.800 106.009 C 300.800 108.088,302.519 106.663,243.646 153.400 C 230.008 164.227,231.181 164.007,225.857 156.729 C 221.954 151.392,212.674 142.800,210.814 142.800 C 210.026 142.800,208.042 140.702,207.804 139.618 C 207.393 137.745,207.792 137.206,231.959 107.034 C 244.632 91.213,256.468 76.429,258.263 74.180 C 261.981 69.522,261.898 69.580,264.646 69.738 C 266.390 69.839,267.127 70.172,269.646 71.995 M191.656 138.230 C 198.689 139.556,201.358 140.529,204.200 142.801 C 205.080 143.505,206.700 144.535,207.800 145.090 C 216.384 149.422,229.521 165.064,231.577 173.401 C 240.378 209.091,210.523 239.744,174.106 232.410 C 170.423 231.669,169.389 231.198,164.945 228.239 C 163.655 227.381,161.430 225.906,160.000 224.963 C 153.814 220.882,147.637 214.463,144.832 209.199 C 144.174 207.965,143.070 206.245,142.378 205.377 C 133.569 194.328,135.934 170.306,147.220 156.200 C 157.962 142.772,176.336 135.342,191.656 138.230 M181.600 168.524 C 169.273 172.089,163.893 184.460,170.232 194.664 C 180.947 211.910,206.865 200.748,201.769 181.082 C 199.534 172.455,189.534 166.229,181.600 168.524 M191.481 172.770 C 202.899 177.776,201.782 196.172,189.864 199.398 C 174.425 203.577,163.966 186.143,175.293 175.109 C 178.910 171.587,186.335 170.513,191.481 172.770 M141.147 210.345 C 141.946 211.194,143.260 212.949,144.066 214.245 C 146.313 217.856,151.368 223.033,155.800 226.263 C 162.236 230.954,162.000 230.730,161.998 232.130 C 161.996 233.756,161.213 234.902,153.200 244.994 C 144.945 255.392,133.334 270.059,127.545 277.400 C 125.116 280.480,121.624 284.890,119.783 287.200 C 117.943 289.510,114.811 293.442,112.824 295.938 C 108.545 301.312,107.559 302.169,105.708 302.116 C 99.439 301.939,68.867 271.185,68.810 265.000 C 68.796 263.387,70.453 261.602,76.262 256.972 C 84.228 250.623,91.334 245.000,94.225 242.759 C 95.531 241.746,100.049 238.146,104.265 234.759 C 108.481 231.371,113.843 227.070,116.181 225.200 C 118.518 223.330,121.210 221.170,122.161 220.400 C 138.539 207.142,138.269 207.285,141.147 210.345 M58.524 316.250 C 58.667 316.497,61.533 319.195,64.892 322.245 C 68.252 325.296,70.753 327.479,70.451 327.096 C 70.149 326.713,70.076 326.400,70.289 326.400 C 70.716 326.400,70.682 324.315,70.232 322.900 C 69.968 322.068,69.529 321.809,68.653 321.968 C 68.025 322.082,66.465 320.836,66.203 320.011 C 66.062 319.565,65.756 319.200,65.524 319.200 C 65.276 319.200,65.329 319.489,65.651 319.900 C 66.148 320.533,66.134 320.548,65.504 320.055 C 65.122 319.755,64.885 319.386,64.978 319.236 C 65.071 319.085,64.982 318.700,64.780 318.381 C 64.556 318.027,64.410 317.985,64.406 318.273 C 64.397 318.962,62.365 318.641,61.794 317.859 C 61.529 317.497,61.163 317.200,60.981 317.200 C 60.799 317.200,61.168 317.740,61.800 318.400 C 62.432 319.060,62.791 319.600,62.597 319.600 C 62.016 319.600,60.052 317.544,60.165 317.054 C 60.222 316.804,60.190 316.746,60.093 316.924 C 59.996 317.103,59.545 316.923,59.090 316.524 C 58.635 316.126,58.380 316.002,58.524 316.250 M64.193 320.011 C 63.955 320.397,65.907 322.800,66.459 322.800 C 66.673 322.800,66.736 322.620,66.600 322.400 C 66.464 322.180,66.533 322.000,66.753 322.000 C 66.973 322.000,67.264 322.180,67.400 322.400 C 67.536 322.620,67.427 322.800,67.157 322.800 C 66.887 322.800,66.802 322.935,66.967 323.100 C 67.132 323.265,67.432 323.400,67.633 323.400 C 67.835 323.400,67.982 323.552,67.961 323.737 C 67.940 323.923,68.435 324.635,69.061 325.321 C 69.687 326.006,68.740 325.272,66.955 323.690 C 63.171 320.336,62.490 319.600,63.175 319.600 C 63.446 319.600,63.519 319.387,63.347 319.100 C 63.140 318.756,63.256 318.770,63.719 319.145 C 64.089 319.445,64.302 319.835,64.193 320.011 M71.016 325.600 C 71.087 326.370,71.179 327.090,71.220 327.200 C 71.261 327.310,71.281 327.511,71.265 327.647 C 71.249 327.783,71.677 328.309,72.218 328.817 C 72.758 329.324,73.200 329.602,73.200 329.434 C 73.200 329.266,72.795 328.790,72.300 328.377 C 71.805 327.964,71.591 327.621,71.825 327.613 C 72.059 327.606,72.768 328.140,73.400 328.800 C 74.032 329.460,74.741 329.997,74.975 329.994 C 75.209 329.991,75.143 329.825,74.830 329.627 C 74.516 329.428,74.199 328.869,74.125 328.384 C 73.994 327.530,74.022 327.523,74.995 328.160 C 75.548 328.522,76.000 328.711,76.000 328.580 C 76.000 328.449,76.434 328.683,76.965 329.101 C 77.612 329.610,78.422 329.821,79.422 329.742 C 81.299 329.594,81.853 329.907,82.713 331.599 C 83.361 332.877,83.915 333.200,86.400 333.753 C 86.950 333.875,87.899 334.441,88.508 335.011 C 89.810 336.229,91.967 337.200,93.369 337.200 C 94.011 337.200,94.970 337.814,96.081 338.939 C 97.410 340.282,98.300 340.794,100.000 341.194 C 101.534 341.554,102.503 342.063,103.200 342.875 C 103.948 343.746,104.936 344.228,107.115 344.784 C 108.719 345.193,110.429 345.813,110.915 346.161 C 111.402 346.510,112.160 347.055,112.600 347.373 C 113.040 347.692,114.822 348.331,116.559 348.794 C 118.297 349.257,120.457 350.065,121.359 350.590 C 122.262 351.114,124.530 351.928,126.400 352.397 C 128.270 352.867,130.880 353.769,132.200 354.402 C 133.577 355.063,136.219 355.831,138.400 356.206 C 142.920 356.981,146.017 357.709,148.200 358.508 C 153.650 360.503,180.910 362.726,191.200 362.015 C 209.786 360.730,217.716 359.770,222.800 358.192 C 224.450 357.679,227.780 356.867,230.200 356.386 C 232.620 355.904,235.860 355.012,237.400 354.403 C 238.940 353.794,241.608 352.911,243.330 352.441 C 245.051 351.971,247.535 351.026,248.851 350.342 C 251.970 348.718,254.334 348.422,255.335 349.528 C 256.953 351.316,256.444 357.506,254.357 361.417 C 253.716 362.618,253.374 363.600,253.596 363.600 C 253.818 363.600,254.000 363.354,254.000 363.054 C 254.000 362.754,254.383 362.021,254.850 361.427 C 256.888 358.836,257.882 352.080,256.593 349.586 C 255.486 347.446,252.649 347.513,247.878 349.791 C 246.295 350.547,243.560 351.547,241.800 352.014 C 240.040 352.481,237.246 353.375,235.590 354.002 C 233.935 354.628,230.965 355.438,228.990 355.803 C 227.016 356.167,223.420 356.982,221.000 357.614 C 215.974 358.927,209.997 359.850,204.200 360.207 C 202.000 360.343,199.660 360.522,199.000 360.604 C 187.976 361.982,159.798 360.469,150.400 357.995 C 148.750 357.560,144.815 356.654,141.656 355.981 C 138.497 355.307,134.604 354.237,133.005 353.602 C 131.407 352.967,129.030 352.171,127.724 351.832 C 126.417 351.494,124.010 350.611,122.374 349.870 C 120.738 349.130,118.367 348.304,117.105 348.034 C 115.798 347.755,113.972 346.969,112.865 346.207 C 111.796 345.472,109.662 344.495,108.124 344.037 C 106.586 343.579,105.000 342.842,104.600 342.400 C 104.200 341.958,102.785 341.200,101.456 340.715 C 100.127 340.231,98.442 339.310,97.713 338.670 C 96.983 338.029,95.368 337.091,94.123 336.585 C 92.879 336.080,91.397 335.235,90.830 334.708 C 90.264 334.182,88.720 333.451,87.400 333.083 C 85.564 332.572,84.671 332.046,83.600 330.845 C 82.815 329.963,81.538 329.068,80.693 328.804 C 79.730 328.503,78.978 327.931,78.609 327.218 C 77.649 325.360,74.910 325.026,73.661 326.613 C 73.185 327.219,72.759 327.458,72.604 327.207 C 72.462 326.976,72.154 326.905,71.920 327.049 C 71.674 327.201,71.581 327.078,71.698 326.756 C 71.809 326.450,72.119 326.251,72.388 326.313 C 72.656 326.374,72.794 326.194,72.696 325.913 C 72.598 325.631,72.235 325.450,71.890 325.510 C 71.545 325.571,71.178 325.301,71.074 324.910 C 70.971 324.520,70.944 324.830,71.016 325.600 " stroke="none" fill="#73bbfb" fill-rule="evenodd"></path><path id="path3" d="M307.208 223.622 C 279.039 227.148,265.620 262.282,283.830 284.837 C 286.766 288.474,287.996 290.328,287.999 291.119 C 288.006 293.750,303.119 299.729,311.082 300.250 C 316.703 300.619,327.365 298.218,331.166 295.728 C 340.159 289.836,348.994 275.300,350.441 264.014 C 352.133 250.825,342.766 233.431,331.200 228.284 C 330.210 227.843,328.320 226.748,327.000 225.849 C 325.036 224.512,324.128 224.164,322.000 223.936 C 316.961 223.396,310.166 223.252,307.208 223.622 " stroke="none" fill="#f9c762" fill-rule="evenodd"></path><path id="path4" d="M176.619 30.446 C 168.173 30.984,154.491 32.803,151.000 33.852 C 149.240 34.381,145.529 35.343,142.752 35.989 C 139.976 36.635,136.671 37.621,135.408 38.180 C 134.145 38.738,131.916 39.564,130.455 40.015 C 127.482 40.933,123.013 42.886,115.600 46.508 C 95.920 56.122,74.846 73.368,62.286 90.139 C 60.778 92.153,58.899 94.665,58.111 95.723 C 56.806 97.476,54.271 101.390,50.681 107.200 C 47.534 112.292,41.250 125.313,40.063 129.200 C 39.627 130.630,38.715 133.092,38.038 134.670 C 37.361 136.249,36.438 139.129,35.987 141.070 C 35.536 143.012,34.645 146.233,34.008 148.229 C 33.370 150.225,32.477 154.545,32.023 157.829 C 31.570 161.113,30.937 165.283,30.619 167.095 C 28.893 176.906,28.963 194.165,30.774 205.400 C 31.199 208.040,31.839 212.345,32.197 214.968 C 32.554 217.590,33.369 221.370,34.008 223.368 C 34.648 225.365,35.553 228.620,36.022 230.600 C 36.490 232.580,37.553 235.820,38.384 237.800 C 39.216 239.780,40.020 241.940,40.171 242.600 C 40.750 245.128,47.351 258.805,50.558 264.123 C 60.430 280.490,71.043 293.131,84.600 304.670 C 93.094 311.899,106.168 320.516,115.600 325.102 C 124.854 329.601,134.989 333.544,141.800 335.294 C 143.560 335.746,147.340 336.733,150.200 337.486 C 163.474 340.983,185.612 342.092,204.200 340.192 C 225.359 338.029,250.642 328.928,269.033 316.855 C 277.190 311.500,277.323 311.813,277.591 337.000 C 277.824 358.820,277.721 358.031,280.625 360.246 C 283.048 362.094,287.125 361.409,294.000 357.999 C 295.650 357.181,297.720 356.281,298.600 356.000 C 299.480 355.719,301.550 354.819,303.200 354.001 C 311.236 350.015,316.396 349.966,323.043 353.815 C 323.946 354.338,325.566 355.114,326.643 355.538 C 327.719 355.963,330.310 357.126,332.400 358.124 C 340.883 362.173,345.423 362.196,347.737 358.200 C 348.072 357.622,348.255 349.030,348.400 327.200 L 348.600 297.000 349.522 295.272 C 350.030 294.322,351.489 292.136,352.764 290.416 C 369.519 267.819,365.161 239.810,341.845 220.236 C 338.311 217.269,337.833 215.488,338.991 209.600 C 341.247 198.133,340.694 168.828,337.995 156.782 C 337.529 154.702,336.723 150.998,336.203 148.551 C 335.233 143.980,331.016 130.793,329.666 128.106 C 329.249 127.278,328.677 125.880,328.394 125.000 C 323.466 109.672,305.333 84.509,288.200 69.225 C 274.667 57.152,252.447 43.716,240.225 40.214 C 238.919 39.840,236.399 38.936,234.625 38.205 C 232.851 37.474,229.668 36.503,227.550 36.047 C 225.433 35.592,222.283 34.783,220.550 34.251 C 216.237 32.926,216.424 32.960,207.200 31.837 C 192.629 30.063,186.802 29.798,176.619 30.446 M196.000 31.446 C 206.982 32.219,215.591 33.435,219.800 34.808 C 221.120 35.239,224.000 35.965,226.200 36.422 C 228.400 36.879,231.910 37.938,234.000 38.777 C 236.090 39.616,238.430 40.435,239.200 40.598 C 248.127 42.484,274.594 57.957,285.374 67.593 C 288.354 70.256,296.201 77.600,296.600 78.100 C 296.820 78.375,298.771 80.569,300.935 82.975 C 307.166 89.905,311.776 96.079,316.631 104.000 C 321.590 112.090,322.269 113.276,323.381 115.800 C 323.962 117.120,325.137 119.640,325.992 121.400 C 328.148 125.837,330.271 131.142,331.595 135.400 C 332.211 137.380,333.169 140.260,333.725 141.800 C 334.280 143.340,335.105 146.490,335.559 148.800 C 336.013 151.110,337.020 156.060,337.797 159.800 C 340.265 171.683,340.576 197.283,338.390 208.546 C 337.019 215.607,337.403 217.620,340.622 220.243 C 346.024 224.646,349.087 227.604,351.567 230.813 C 365.271 248.544,365.340 272.125,351.744 290.600 C 347.546 296.304,347.880 293.313,347.625 327.400 C 347.382 359.781,347.468 358.627,345.208 359.796 C 342.819 361.031,337.374 360.109,333.367 357.790 C 332.469 357.270,330.399 356.313,328.767 355.662 C 327.135 355.011,324.990 354.010,324.000 353.437 C 323.010 352.865,320.249 351.761,317.864 350.984 L 313.528 349.572 311.064 350.203 C 309.709 350.549,307.160 351.477,305.400 352.264 C 303.640 353.052,300.577 354.370,298.594 355.195 C 296.610 356.019,293.910 357.237,292.594 357.902 C 287.247 360.601,282.933 361.134,280.822 359.357 C 278.543 357.440,278.615 358.114,278.400 336.600 C 278.181 314.676,278.160 314.497,275.753 313.582 C 274.296 313.028,273.199 313.423,269.287 315.908 C 262.821 320.015,250.513 326.586,247.400 327.593 C 246.520 327.878,244.592 328.714,243.117 329.452 C 241.641 330.190,239.032 331.178,237.320 331.647 C 235.608 332.117,232.925 333.015,231.357 333.643 C 229.790 334.270,226.008 335.320,222.954 335.975 C 219.899 336.631,216.104 337.523,214.521 337.959 C 202.028 341.395,164.832 340.951,152.600 337.221 C 151.280 336.819,148.220 336.091,145.800 335.605 C 143.380 335.119,139.870 334.137,138.000 333.423 C 136.130 332.708,133.256 331.719,131.614 331.224 C 129.972 330.730,127.632 329.825,126.414 329.215 C 125.196 328.604,123.750 327.965,123.200 327.795 C 121.415 327.242,111.093 322.029,107.541 319.886 C 105.638 318.739,102.777 317.012,101.182 316.048 C 89.926 309.247,73.869 294.812,64.652 283.208 C 58.700 275.716,57.914 274.597,52.412 265.800 C 48.628 259.751,41.290 244.880,40.568 241.800 C 40.413 241.140,39.583 238.841,38.724 236.691 C 37.864 234.541,36.810 231.211,36.382 229.291 C 35.954 227.371,35.083 224.160,34.445 222.157 C 33.807 220.153,33.072 216.823,32.812 214.757 C 32.551 212.690,32.001 208.570,31.589 205.600 C 29.680 191.823,29.683 178.929,31.598 165.800 C 32.015 162.940,32.564 158.890,32.817 156.800 C 33.070 154.710,33.873 151.110,34.601 148.800 C 35.329 146.490,36.232 143.166,36.609 141.414 C 36.985 139.661,37.885 136.871,38.609 135.214 C 39.333 133.556,40.145 131.390,40.415 130.400 C 41.486 126.471,47.738 113.539,52.106 106.218 C 65.283 84.132,83.619 65.981,106.800 52.073 C 113.669 47.952,126.490 41.855,130.978 40.576 C 132.286 40.203,134.590 39.373,136.098 38.731 C 137.606 38.089,140.808 37.129,143.213 36.597 C 145.619 36.065,149.081 35.174,150.906 34.617 C 159.828 31.896,181.122 30.398,196.000 31.446 M174.750 40.821 C 172.412 40.989,169.082 41.413,167.350 41.763 C 165.617 42.112,161.585 42.745,158.388 43.168 C 154.728 43.653,150.952 44.452,148.188 45.325 C 145.775 46.088,142.586 47.004,141.103 47.360 C 139.620 47.716,137.370 48.474,136.103 49.045 C 134.836 49.616,132.335 50.586,130.545 51.201 C 128.755 51.816,126.235 52.878,124.945 53.562 C 123.655 54.245,121.430 55.339,120.000 55.993 C 118.570 56.646,115.943 58.040,114.163 59.090 C 104.801 64.614,105.446 64.190,97.600 69.967 C 87.840 77.154,76.974 87.941,70.063 97.305 C 64.403 104.974,63.800 105.837,61.875 109.018 C 57.533 116.196,56.126 118.688,55.451 120.400 C 55.060 121.390,54.110 123.334,53.340 124.719 C 52.570 126.105,51.521 128.445,51.010 129.919 C 50.499 131.394,49.622 133.620,49.060 134.868 C 48.498 136.115,47.744 138.275,47.383 139.668 C 47.023 141.060,46.112 144.040,45.361 146.288 C 44.609 148.537,43.628 152.587,43.182 155.288 C 42.736 157.990,41.928 162.376,41.388 165.035 C 39.245 175.574,39.231 195.829,41.360 206.230 C 41.904 208.886,42.715 213.311,43.162 216.062 C 43.609 218.813,44.525 222.670,45.197 224.632 C 45.869 226.595,46.770 229.563,47.200 231.229 C 47.629 232.895,48.588 235.595,49.330 237.229 C 50.073 238.863,50.906 240.920,51.181 241.800 C 52.985 247.557,61.219 262.216,66.996 269.957 C 68.538 272.023,70.414 274.543,71.163 275.557 C 78.765 285.836,99.404 304.394,108.312 308.960 C 109.034 309.330,110.693 310.324,112.000 311.168 C 115.684 313.550,128.982 319.977,132.784 321.215 C 134.663 321.826,137.301 322.790,138.646 323.357 C 139.992 323.924,142.422 324.668,144.046 325.009 C 145.671 325.350,148.710 326.177,150.800 326.847 C 152.890 327.517,156.670 328.322,159.200 328.635 C 161.730 328.949,165.870 329.472,168.400 329.796 C 180.039 331.291,191.551 331.365,200.200 330.000 C 201.520 329.792,205.172 329.339,208.316 328.993 C 211.478 328.646,215.588 327.904,217.516 327.332 C 219.432 326.765,223.070 325.779,225.600 325.142 C 228.130 324.506,231.460 323.470,233.000 322.840 C 234.540 322.210,236.520 321.476,237.400 321.208 C 239.104 320.690,247.530 316.954,250.200 315.533 C 261.168 309.695,270.538 303.614,276.715 298.324 C 278.673 296.647,281.629 295.277,283.954 294.968 C 285.889 294.712,288.000 293.175,288.000 292.023 C 288.000 291.369,282.191 292.085,280.200 292.985 C 278.300 293.843,277.315 294.529,270.509 299.735 C 265.360 303.674,252.917 311.600,251.882 311.600 C 251.674 311.600,250.491 312.215,249.252 312.967 C 248.014 313.719,245.787 314.790,244.305 315.347 C 242.823 315.904,240.843 316.805,239.905 317.349 C 238.967 317.892,237.120 318.643,235.800 319.017 C 234.480 319.391,231.588 320.382,229.373 321.219 C 227.159 322.056,223.829 323.028,221.973 323.379 C 220.118 323.729,216.710 324.543,214.400 325.188 C 200.697 329.010,170.034 328.912,155.000 324.997 C 152.140 324.252,148.630 323.440,147.200 323.193 C 145.770 322.946,143.019 322.115,141.086 321.346 C 139.154 320.578,136.634 319.676,135.486 319.343 C 131.602 318.214,118.435 312.014,113.735 309.100 C 112.379 308.260,110.129 307.109,108.736 306.543 C 104.461 304.806,102.493 303.672,98.446 300.615 C 84.136 289.807,68.941 273.038,65.061 263.773 C 64.331 262.028,62.792 258.980,61.643 257.000 C 58.760 252.032,53.634 241.467,52.920 239.021 C 52.596 237.910,51.724 235.644,50.982 233.986 C 50.240 232.329,49.258 229.359,48.800 227.386 C 48.342 225.414,47.420 222.090,46.753 220.000 C 46.085 217.910,45.282 214.130,44.968 211.600 C 44.655 209.070,44.133 205.020,43.810 202.600 C 42.703 194.321,42.343 185.989,42.809 179.470 C 43.544 169.192,45.463 155.340,46.615 151.990 C 47.180 150.345,48.092 147.119,48.641 144.820 C 49.190 142.521,50.236 139.281,50.965 137.620 C 51.693 135.959,52.578 133.604,52.931 132.386 C 57.198 117.653,75.623 92.067,92.410 77.562 C 101.044 70.101,117.750 59.205,123.860 57.050 C 124.724 56.745,126.695 55.859,128.240 55.081 C 129.784 54.303,132.117 53.357,133.424 52.978 C 134.731 52.600,137.183 51.683,138.873 50.941 C 140.562 50.200,143.706 49.231,145.857 48.788 C 148.009 48.345,151.430 47.451,153.459 46.801 C 166.037 42.772,203.616 42.787,216.660 46.826 C 218.827 47.497,222.241 48.386,224.247 48.803 C 226.253 49.219,229.403 50.183,231.247 50.944 C 233.091 51.705,235.680 52.632,237.000 53.003 C 238.320 53.375,240.351 54.207,241.514 54.851 C 242.677 55.496,244.477 56.357,245.514 56.766 C 247.068 57.379,251.999 59.922,259.800 64.133 C 260.460 64.489,262.685 65.593,264.745 66.586 C 277.005 72.495,300.056 95.898,304.748 107.200 C 305.433 108.850,306.791 111.550,307.765 113.200 C 309.567 116.250,314.064 125.119,316.386 130.200 C 318.517 134.861,322.660 147.873,323.774 153.400 C 324.350 156.260,325.269 160.670,325.816 163.200 C 327.996 173.293,327.972 198.835,325.774 208.200 C 323.687 217.090,323.187 223.451,324.512 224.269 C 325.334 224.777,326.303 222.837,326.586 220.115 C 326.742 218.622,327.117 216.204,327.420 214.743 C 330.835 198.269,330.586 166.326,326.951 154.742 C 326.424 153.060,325.541 149.640,324.989 147.142 C 324.438 144.644,323.466 141.340,322.829 139.800 C 322.192 138.260,321.362 135.920,320.984 134.600 C 316.966 120.551,301.629 97.148,286.870 82.542 C 273.239 69.051,251.086 54.454,239.017 51.009 C 237.706 50.635,235.770 49.891,234.713 49.356 C 233.656 48.820,230.498 47.767,227.696 47.015 C 224.893 46.263,221.563 45.286,220.295 44.844 C 219.028 44.402,216.508 43.834,214.695 43.582 C 212.883 43.331,208.759 42.694,205.532 42.167 C 194.963 40.442,185.676 40.036,174.750 40.821 M324.600 69.600 C 324.736 69.820,324.621 70.000,324.344 70.000 C 323.681 70.000,324.472 70.822,325.248 70.939 C 325.551 70.985,326.070 71.180,326.400 71.373 C 326.730 71.566,326.471 71.156,325.825 70.462 C 324.658 69.208,324.127 68.835,324.600 69.600 M326.054 75.811 C 325.982 76.897,327.081 78.406,327.923 78.375 C 328.402 78.357,328.329 78.241,327.674 77.978 C 327.165 77.774,326.861 77.425,326.998 77.203 C 327.135 76.982,327.069 76.800,326.851 76.800 C 326.634 76.800,326.378 76.395,326.282 75.900 C 326.128 75.101,326.103 75.091,326.054 75.811 M332.526 84.171 C 333.001 84.705,333.467 85.067,333.560 84.974 C 333.775 84.758,332.377 83.200,331.968 83.200 C 331.799 83.200,332.050 83.637,332.526 84.171 M338.000 96.525 C 338.000 96.594,338.585 97.179,339.300 97.825 L 340.600 99.000 339.425 97.700 C 338.330 96.488,338.000 96.216,338.000 96.525 M354.028 134.200 C 354.028 134.420,354.286 135.050,354.600 135.600 C 354.914 136.150,355.172 136.420,355.172 136.200 C 355.172 135.980,354.914 135.350,354.600 134.800 C 354.286 134.250,354.028 133.980,354.028 134.200 M179.000 138.192 C 155.735 141.918,139.846 158.383,137.124 181.588 C 136.127 190.083,138.404 200.393,142.378 205.377 C 143.070 206.245,144.174 207.965,144.832 209.199 C 147.637 214.463,153.814 220.882,160.000 224.963 C 161.430 225.906,163.655 227.381,164.945 228.239 C 169.389 231.198,170.423 231.669,174.106 232.410 C 210.523 239.744,240.378 209.091,231.577 173.401 C 229.521 165.064,216.384 149.422,207.800 145.090 C 206.700 144.535,205.080 143.505,204.200 142.801 C 199.108 138.730,188.153 136.726,179.000 138.192 M192.251 169.956 C 198.800 173.099,202.413 178.692,202.394 185.658 C 202.345 203.485,179.660 209.838,170.232 194.664 C 161.240 180.189,176.917 162.598,192.251 169.956 M360.893 173.200 C 360.893 173.970,360.975 174.285,361.076 173.900 C 361.176 173.515,361.176 172.885,361.076 172.500 C 360.975 172.115,360.893 172.430,360.893 173.200 M361.301 181.800 C 361.305 182.680,361.387 182.993,361.483 182.495 C 361.579 181.998,361.575 181.278,361.475 180.895 C 361.375 180.513,361.296 180.920,361.301 181.800 M361.314 192.600 C 361.317 193.700,361.395 194.103,361.487 193.495 C 361.579 192.886,361.577 191.986,361.482 191.495 C 361.387 191.003,361.311 191.500,361.314 192.600 M372.003 215.003 C 372.217 215.262,372.275 215.592,372.130 215.737 C 371.985 215.882,372.065 216.000,372.308 216.000 C 372.551 216.000,372.725 215.670,372.695 215.267 C 372.665 214.863,372.409 214.533,372.126 214.533 C 371.778 214.533,371.738 214.685,372.003 215.003 M375.900 224.799 C 376.175 225.108,376.400 225.673,376.400 226.056 C 376.400 226.439,376.554 226.848,376.742 226.964 C 377.373 227.354,376.720 225.231,376.056 224.732 C 375.504 224.317,375.479 224.327,375.900 224.799 M383.693 254.400 C 383.693 255.170,383.775 255.485,383.876 255.100 C 383.976 254.715,383.976 254.085,383.876 253.700 C 383.775 253.315,383.693 253.630,383.693 254.400 M383.701 265.400 C 383.705 266.280,383.787 266.593,383.883 266.095 C 383.979 265.598,383.975 264.878,383.875 264.495 C 383.775 264.113,383.696 264.520,383.701 265.400 M369.388 329.200 C 369.388 342.290,369.438 347.645,369.500 341.100 C 369.561 334.555,369.561 323.845,369.500 317.300 C 369.438 310.755,369.388 316.110,369.388 329.200 M72.400 328.125 C 72.400 328.194,72.985 328.779,73.700 329.425 L 75.000 330.600 73.825 329.300 C 72.730 328.088,72.400 327.816,72.400 328.125 M89.024 336.187 C 89.451 336.510,89.980 336.775,90.200 336.775 C 90.420 336.775,90.251 336.510,89.824 336.187 C 89.396 335.864,88.867 335.600,88.647 335.600 C 88.427 335.600,88.596 335.864,89.024 336.187 M103.288 343.413 C 103.886 344.043,104.447 344.477,104.535 344.379 C 104.623 344.280,104.133 343.765,103.447 343.234 L 102.200 342.269 103.288 343.413 M256.101 353.000 C 256.105 353.880,256.187 354.193,256.283 353.695 C 256.379 353.198,256.375 352.478,256.275 352.095 C 256.175 351.713,256.096 352.120,256.101 353.000 M195.505 361.883 C 196.002 361.979,196.722 361.975,197.105 361.875 C 197.487 361.775,197.080 361.696,196.200 361.701 C 195.320 361.705,195.007 361.787,195.505 361.883 M177.905 362.283 C 178.402 362.379,179.122 362.375,179.505 362.275 C 179.887 362.175,179.480 362.096,178.600 362.101 C 177.720 362.105,177.407 362.187,177.905 362.283 M189.700 362.276 C 190.085 362.376,190.715 362.376,191.100 362.276 C 191.485 362.175,191.170 362.093,190.400 362.093 C 189.630 362.093,189.315 362.175,189.700 362.276 M279.300 383.076 C 279.685 383.176,280.315 383.176,280.700 383.076 C 281.085 382.975,280.770 382.893,280.000 382.893 C 279.230 382.893,278.915 382.975,279.300 383.076 " stroke="none" fill="#2685bd" fill-rule="evenodd"></path></g></svg>
