<?xml version="1.0" standalone="no"?><!DOCTYPE svg PUBLIC "-//W3C//DTD SVG 1.1//EN" "http://www.w3.org/Graphics/SVG/1.1/DTD/svg11.dtd"><svg t="1776650353084" class="icon" viewBox="0 0 1024 1024" version="1.1" xmlns="http://www.w3.org/2000/svg" p-id="5567" width="200" height="200" xmlns:xlink="http://www.w3.org/1999/xlink"><path d="M213.333333 768H128c-46.933333 0-85.333333 38.4-85.333333 85.333333s38.4 85.333333 85.333333 85.333334h85.333333c46.933333 0 85.333333-38.4 85.333334-85.333334s-38.4-85.333333-85.333334-85.333333zM554.666667 682.666667h-85.333334c-46.933333 0-85.333333 38.4-85.333333 85.333333v85.333333c0 46.933333 38.4 85.333333 85.333333 85.333334h85.333334c46.933333 0 85.333333-38.4 85.333333-85.333334v-85.333333c0-46.933333-38.4-85.333333-85.333333-85.333333zM896 512h-85.333333c-46.933333 0-85.333333 38.4-85.333334 85.333333v256c0 46.933333 38.4 85.333333 85.333334 85.333334h85.333333c46.933333 0 85.333333-38.4 85.333333-85.333334v-256c0-46.933333-38.4-85.333333-85.333333-85.333333zM938.666667 85.333333h-281.6c-38.4 0-55.466667 46.933333-29.866667 72.533334l81.066667 81.066666C550.4 418.133333 324.266667 554.666667 85.333333 554.666667c-25.6 0-42.666667 17.066667-42.666666 42.666666s17.066667 42.666667 42.666666 42.666667c285.866667 0 550.4-81.066667 742.4-281.6l76.8 76.8c25.6 25.6 72.533333 8.533333 72.533334-29.866667V128c4.266667-25.6-12.8-42.666667-38.4-42.666667z" p-id="5568" fill="#1c8db6"></path></svg>